<svg width="386" height="355" viewBox="0 0 386 355" fill="none" xmlns="http://www.w3.org/2000/svg">
<path d="M104.676 172.527L118.107 180.287L122.911 177.512C124.173 176.782 126.225 176.782 127.493 177.512L129.594 178.727C130.857 179.457 130.857 180.642 129.599 181.372L124.795 184.147L274.523 270.657L279.323 267.883C280.59 267.152 282.642 267.152 283.905 267.883L286.006 269.097C287.269 269.832 287.274 271.012 286.006 271.748L281.207 274.522L294.633 282.281C297.8 284.108 302.929 284.108 306.086 282.286L382.637 237.886C385.794 236.06 385.794 233.098 382.632 231.272L192.67 121.517C189.503 119.691 184.379 119.691 181.222 121.517L104.671 165.913C101.514 167.739 101.514 170.701 104.676 172.527Z" fill="#0B0960"/>
<path d="M128.608 7.55729L126.334 8.87029C126.329 8.87523 126.32 8.88017 126.315 8.88017L126.31 8.8851C125.279 9.48731 124.647 10.7658 124.647 12.5822V148.513C124.647 152.161 127.212 156.608 130.374 158.434L320.331 268.179C321.895 269.082 323.311 269.171 324.351 268.594V268.598L324.386 268.579C324.386 268.579 324.386 268.579 324.386 268.574L326.66 267.261V267.256C327.705 266.664 328.351 265.38 328.351 263.544V127.613C328.347 123.966 325.782 119.518 322.62 117.692L132.673 7.95218C131.119 7.05381 129.713 6.96002 128.682 7.52274L128.677 7.5178L128.628 7.54742C128.623 7.54742 128.613 7.55235 128.608 7.55729Z" fill="#4540EA"/>
<path opacity="0.2" d="M308.035 136.178C306.279 135.161 304.849 135.985 304.849 138.014L304.854 197.909C304.854 199.937 306.274 202.41 308.035 203.427L326.063 213.842V146.598L308.035 136.178Z" fill="black"/>
<path opacity="0.3" d="M322.624 117.702L132.672 7.95218C131.118 7.05381 129.713 6.96002 128.682 7.52274L128.677 7.5178L128.627 7.54742C128.622 7.54742 128.613 7.55235 128.608 7.55729L126.349 8.86536C127.384 8.2829 128.805 8.37175 130.378 9.27999L320.336 119.034C323.502 120.866 326.067 125.308 326.062 128.956V264.887C326.062 266.708 325.421 267.986 324.39 268.589L326.659 267.276V267.271C327.705 266.678 328.351 265.395 328.351 263.559V127.628C328.351 123.975 325.786 119.533 322.624 117.702Z" fill="black"/>
<path opacity="0.2" d="M320.331 263.139L130.379 153.39C128.564 152.338 126.946 152.383 125.896 153.301C126.946 155.443 128.554 157.378 130.379 158.434L320.331 268.179C322.152 269.23 323.769 269.186 324.815 268.268C323.769 266.131 322.161 264.196 320.331 263.139Z" fill="black"/>
<path d="M322.886 269.576C321.993 269.576 321.021 269.285 320.025 268.712L130.072 158.963C126.743 157.038 124.035 152.348 124.04 148.508V12.5823C124.04 10.6079 124.731 9.11222 125.988 8.36686C125.998 8.35699 126.013 8.35205 126.023 8.34712C126.028 8.34712 126.028 8.34218 126.033 8.34218L128.302 7.03411C128.307 7.02918 128.312 7.02918 128.316 7.02424L128.366 6.99462C128.405 6.96994 128.45 6.9502 128.494 6.93539C129.747 6.30357 131.335 6.47633 132.983 7.429L322.935 117.178C326.259 119.099 328.967 123.788 328.972 127.628V263.559C328.967 265.543 328.272 267.039 327.009 267.779C326.994 267.789 326.984 267.794 326.97 267.804L324.735 269.097C324.711 269.112 324.686 269.127 324.661 269.141C324.642 269.151 324.622 269.161 324.597 269.171C324.074 269.438 323.497 269.576 322.886 269.576ZM126.644 9.39851C126.639 9.40345 126.63 9.40838 126.625 9.41332C125.747 9.92667 125.263 11.0521 125.263 12.5823V148.513C125.263 151.963 127.69 156.179 130.684 157.906L320.636 267.656C321.948 268.416 323.162 268.559 324.05 268.065C324.069 268.056 324.094 268.046 324.114 268.036L326.314 266.762C326.328 266.752 326.338 266.743 326.353 266.738C327.241 266.229 327.734 265.104 327.734 263.559V127.628C327.729 124.178 325.298 119.967 322.308 118.24L132.366 8.48533C131.059 7.7301 129.86 7.58202 128.977 8.06082C128.953 8.07563 128.928 8.0855 128.903 8.09538L126.644 9.39851Z" fill="#004CC2"/>
<path d="M320.331 254.955L130.379 145.201C129.116 144.47 128.085 142.693 128.085 141.232V14.5667C128.085 13.1056 129.116 12.5133 130.379 13.2438L320.331 122.993C321.594 123.724 322.625 125.506 322.625 126.967V253.637C322.625 255.088 321.594 255.686 320.331 254.955Z" fill="white"/>
<path d="M308.035 136.178C306.279 135.161 304.849 135.985 304.849 138.014L304.854 197.909C304.854 199.937 306.274 202.41 308.035 203.427L322.62 211.853V144.608L308.035 136.178Z" fill="#CEE1FD"/>
<path d="M137.25 167.907L138.399 168.563L142.054 166.451V162.482L137.25 165.256C135.987 165.987 135.987 167.171 137.25 167.907Z" fill="#80B6F1"/>
<path opacity="0.2" d="M137.25 167.907L138.399 168.563L142.054 166.451V162.482L137.25 165.256C135.987 165.987 135.987 167.171 137.25 167.907Z" fill="black"/>
<path d="M140.8 172.626C141.195 172.848 141.742 172.813 142.344 172.468L150.932 167.502V162.423L147.849 160.641L139.252 165.607C138.038 166.308 137.057 168.01 137.057 169.412C137.057 170.079 137.284 170.548 137.649 170.79L137.644 170.799L140.8 172.626Z" fill="#7185A3"/>
<path d="M140.8 172.626C141.195 172.848 141.742 172.813 142.344 172.468L150.932 167.502V162.423L147.849 160.641L139.252 165.607C138.038 166.308 137.057 168.01 137.057 169.412C137.057 170.079 137.284 170.548 137.649 170.79L137.644 170.799L140.8 172.626Z" fill="#B7DAFE"/>
<path opacity="0.5" d="M150.932 162.423L142.339 167.389C141.126 168.094 140.14 169.792 140.145 171.194C140.145 172.596 141.131 173.164 142.344 172.463L150.932 167.502V162.423Z" fill="black"/>
<path d="M293.667 258.272L294.811 258.939L298.466 256.826V252.857L293.657 255.632C292.394 256.357 292.399 257.547 293.667 258.272Z" fill="#80B6F1"/>
<path opacity="0.2" d="M293.667 258.272L294.811 258.939L298.466 256.826V252.857L293.657 255.632C292.394 256.357 292.399 257.547 293.667 258.272Z" fill="black"/>
<path d="M297.208 262.976C297.602 263.198 298.145 263.164 298.751 262.818L307.339 257.853V252.778L304.256 250.991L295.659 255.957C294.45 256.658 293.464 258.361 293.464 259.763C293.464 260.434 293.696 260.903 294.056 261.145L294.051 261.155L297.208 262.976Z" fill="#7185A3"/>
<path d="M297.208 262.976C297.602 263.198 298.145 263.164 298.751 262.818L307.339 257.853V252.778L304.256 250.991L295.659 255.957C294.45 256.658 293.464 258.361 293.464 259.763C293.464 260.434 293.696 260.903 294.056 261.145L294.051 261.155L297.208 262.976Z" fill="white"/>
<path d="M307.344 252.778L298.747 257.744C297.538 258.445 296.552 260.148 296.552 261.55C296.552 262.952 297.538 263.519 298.752 262.818L307.339 257.853L307.344 252.778Z" fill="#CEE1FD"/>
<path d="M320.918 267.389C320.918 267.37 320.918 267.35 320.913 267.33C320.888 267.197 320.854 267.064 320.814 266.93C320.809 266.915 320.804 266.901 320.799 266.886C320.755 266.753 320.696 266.619 320.632 266.491C320.627 266.476 320.622 266.461 320.617 266.446C320.553 266.328 320.479 266.21 320.4 266.091C320.385 266.066 320.375 266.042 320.355 266.017C320.272 265.899 320.178 265.785 320.079 265.672C320.059 265.647 320.045 265.622 320.02 265.602C319.65 265.193 319.167 264.813 318.575 264.472L305.144 256.712L300.345 259.487C299.077 260.217 297.025 260.217 295.762 259.482L294.81 258.934L293.666 258.267C292.398 257.537 292.394 256.352 293.656 255.622L295.027 254.832L298.465 252.848L148.737 166.342L143.933 169.116C142.67 169.847 140.618 169.847 139.35 169.111L138.398 168.559L137.249 167.902C135.982 167.167 135.982 165.987 137.249 165.251L138.615 164.462L142.053 162.477L128.622 154.718C125.456 152.891 120.331 152.891 117.174 154.718L2.97889 220.699C2.78159 220.812 2.59909 220.931 2.42646 221.049C1.22788 221.898 0.621193 222.935 0.611328 223.971V223.986C0.611328 223.991 0.611328 223.996 0.611328 224.001V227.895H0.626125C0.596531 229.115 1.37092 230.344 2.98875 231.272L192.936 341.026C196.103 342.853 201.233 342.853 204.389 341.026L318.585 275.06C320.148 274.157 320.933 272.972 320.947 271.787H320.952V271.753C320.952 271.753 320.952 271.753 320.952 271.748V267.779V267.774C320.952 267.646 320.937 267.518 320.918 267.389Z" fill="#4540EA"/>
<path opacity="0.3" d="M320.923 267.473C321.076 268.771 320.296 270.099 318.58 271.091L204.389 337.067C201.233 338.894 196.103 338.894 192.936 337.063L2.9887 227.313C1.4054 226.4 0.616211 225.2 0.616211 224.006V227.9H0.631008C0.601414 229.12 1.3758 230.349 2.99364 231.277L192.941 341.031C196.108 342.858 201.237 342.858 204.394 341.031L318.585 275.06C320.148 274.157 320.932 272.972 320.947 271.787H320.952V271.753C320.952 271.753 320.952 271.753 320.952 271.748V267.779V267.774C320.952 267.676 320.937 267.572 320.923 267.473Z" fill="black"/>
<path d="M198.668 343.01C196.483 343.01 194.298 342.532 192.631 341.569L2.68324 231.815C0.976619 230.832 0.0345269 229.49 0.0147973 228.024C0.00493242 227.984 0 227.945 0 227.905V224.011C0 223.991 0 223.971 0.00493242 223.951C0.0246621 222.693 0.759593 221.483 2.07655 220.55C2.26398 220.417 2.46621 220.289 2.6783 220.165L116.869 154.189C120.188 152.269 125.599 152.269 128.933 154.189L142.364 161.949C142.552 162.058 142.67 162.26 142.67 162.482C142.67 162.699 142.552 162.902 142.364 163.015L137.56 165.789C137.151 166.026 136.919 166.312 136.919 166.579C136.919 166.846 137.156 167.137 137.56 167.374L139.657 168.583C140.732 169.21 142.552 169.21 143.627 168.588L148.431 165.814C148.619 165.705 148.855 165.705 149.043 165.814L298.771 252.324C298.959 252.433 299.077 252.635 299.077 252.857C299.077 253.074 298.959 253.277 298.771 253.39L293.962 256.164C293.558 256.396 293.326 256.688 293.326 256.954C293.326 257.221 293.563 257.512 293.972 257.749L295.067 258.386C295.087 258.396 295.102 258.401 295.117 258.41L296.068 258.958C297.139 259.585 298.959 259.585 300.039 258.963L304.838 256.189C305.026 256.081 305.263 256.081 305.45 256.189L318.881 263.949C319.517 264.314 320.05 264.738 320.469 265.198C320.494 265.222 320.518 265.257 320.548 265.291C320.647 265.405 320.76 265.538 320.854 265.671C320.883 265.716 320.898 265.745 320.918 265.775C320.997 265.894 321.086 266.032 321.16 266.17C321.17 266.19 321.184 266.224 321.194 266.249C321.268 266.402 321.332 266.55 321.382 266.693C321.387 266.708 321.396 266.743 321.401 266.757C321.451 266.905 321.49 267.063 321.52 267.221C321.525 267.241 321.53 267.29 321.53 267.315C321.549 267.439 321.569 267.596 321.569 267.769V271.748C321.569 271.782 321.564 271.817 321.559 271.851C321.515 273.293 320.568 274.616 318.891 275.583L204.695 341.569C203.033 342.532 200.853 343.01 198.668 343.01ZM1.22817 227.782C1.23804 227.826 1.24297 227.871 1.24297 227.92C1.21831 228.966 1.94337 229.973 3.29979 230.753L193.247 340.508C196.241 342.235 201.1 342.235 204.089 340.508L318.279 274.532C319.591 273.776 320.321 272.799 320.336 271.782C320.336 271.753 320.341 271.723 320.341 271.693V267.784C320.341 267.675 320.331 267.582 320.316 267.483C320.316 267.478 320.316 267.473 320.316 267.468C320.316 267.453 320.311 267.414 320.311 267.404C320.297 267.34 320.272 267.231 320.237 267.123C320.232 267.113 320.223 267.078 320.223 267.063C320.193 266.979 320.144 266.871 320.094 266.767C320.084 266.752 320.075 266.728 320.07 266.708C320.02 266.619 319.961 266.53 319.902 266.441C319.892 266.427 319.872 266.397 319.867 266.382C319.798 266.279 319.715 266.18 319.631 266.086C319.621 266.076 319.601 266.047 319.591 266.037C319.246 265.657 318.807 265.316 318.284 265.01L305.164 257.428L300.67 260.024C299.206 260.869 296.922 260.869 295.472 260.02L294.569 259.501C294.549 259.491 294.534 259.481 294.515 259.472L293.37 258.805C292.571 258.346 292.113 257.67 292.113 256.949C292.113 256.234 292.566 255.557 293.366 255.098L297.252 252.852L148.737 167.053L144.239 169.649C142.784 170.493 140.5 170.488 139.045 169.644L136.949 168.435C136.14 167.966 135.691 167.305 135.691 166.579C135.691 165.853 136.135 165.192 136.944 164.728L140.83 162.482L128.322 155.251C125.328 153.523 120.469 153.523 117.485 155.251L3.28499 221.227C3.10742 221.33 2.93972 221.434 2.78188 221.548C1.78554 222.253 1.2331 223.112 1.22324 223.976C1.22324 223.991 1.22324 224.006 1.22324 224.016C1.22324 224.021 1.22324 224.021 1.22324 224.025V227.782H1.22817Z" fill="#004CC2"/>
<path opacity="0.3" d="M243.746 304.588C241.847 305.684 238.774 305.684 236.875 304.588L59.1993 201.927C57.3003 200.831 57.3003 199.049 59.1943 197.958L116.415 164.896C118.314 163.8 121.392 163.8 123.286 164.901L300.962 267.557C302.856 268.653 302.866 270.43 300.967 271.526L243.746 304.588Z" fill="black"/>
<path d="M77.9076 206.029C76.64 206.759 74.593 206.759 73.3254 206.029L64.9206 201.171C63.6579 200.441 63.6529 199.251 64.9206 198.526L71.022 194.996C72.2847 194.266 74.3365 194.266 75.6042 195.001L84.009 199.853C85.2717 200.584 85.2767 201.769 84.009 202.499L77.9076 206.029ZM109.968 202.509C111.236 201.783 111.231 200.594 109.968 199.863L88.5814 187.508C87.3137 186.773 85.2619 186.778 83.9992 187.508L77.8977 191.033C76.635 191.763 76.635 192.948 77.8977 193.678L99.2847 206.038C100.552 206.769 102.604 206.769 103.867 206.038L109.968 202.509ZM96.9961 210.007C98.2588 209.276 98.2588 208.087 96.9961 207.361L90.8848 203.832C89.6221 203.101 87.5702 203.096 86.3026 203.832L80.1963 207.356C78.9336 208.087 78.9336 209.272 80.2012 210.002L86.3174 213.536C87.5801 214.267 89.632 214.272 90.8996 213.536L96.9961 210.007ZM109.983 217.51C111.246 216.779 111.246 215.595 109.983 214.864L103.872 211.335C102.604 210.604 100.557 210.599 99.2897 211.335L93.1833 214.859C91.9206 215.59 91.9256 216.774 93.1833 217.505L99.2946 221.034C100.557 221.765 102.609 221.77 103.877 221.034L109.983 217.51ZM122.975 225.013C124.238 224.282 124.238 223.098 122.97 222.367L116.859 218.833C115.591 218.102 113.544 218.102 112.277 218.833L106.175 222.357C104.913 223.088 104.913 224.272 106.175 225.003L112.287 228.537C113.549 229.268 115.601 229.273 116.864 228.542L122.975 225.013ZM209.741 275.144C211.004 274.413 211.004 273.229 209.741 272.498L194.781 263.855C193.514 263.12 191.467 263.12 190.204 263.85L184.098 267.374C182.835 268.105 182.835 269.29 184.098 270.02L199.058 278.663C200.32 279.394 202.372 279.394 203.635 278.663L209.741 275.144ZM235.696 275.154C236.958 274.423 236.958 273.239 235.696 272.508L220.736 263.865C219.468 263.134 217.421 263.134 216.153 263.865L210.047 267.394C208.784 268.125 208.784 269.309 210.047 270.04L225.007 278.683C226.27 279.414 228.322 279.414 229.589 278.683L235.696 275.154ZM187.905 262.532C189.168 261.797 189.168 260.617 187.901 259.886L181.794 256.357C180.527 255.622 178.475 255.627 177.212 256.357L171.106 259.886C169.843 260.617 169.843 261.802 171.106 262.532L177.212 266.061C178.48 266.792 180.532 266.792 181.794 266.066L187.905 262.532ZM174.918 255.024C176.186 254.299 176.181 253.114 174.918 252.384L129.846 226.341C128.583 225.61 126.531 225.61 125.264 226.336L119.162 229.865C117.9 230.591 117.9 231.78 119.167 232.511L164.24 258.549C165.507 259.279 167.559 259.279 168.822 258.554L174.918 255.024ZM139.4 180.721C140.668 179.991 140.663 178.806 139.4 178.08L122.146 168.109C120.879 167.379 118.832 167.374 117.564 168.109L116.805 168.549C115.537 169.279 115.542 170.464 116.81 171.194L134.058 181.165C135.321 181.896 137.373 181.901 138.636 181.165L139.4 180.721ZM152.387 188.229C153.655 187.498 153.65 186.314 152.387 185.583L146.276 182.049C145.013 181.318 142.961 181.318 141.699 182.049L140.934 182.488C139.671 183.224 139.676 184.408 140.939 185.134L147.05 188.668C148.313 189.399 150.365 189.404 151.632 188.668L152.387 188.229ZM165.374 195.732C166.637 195.001 166.637 193.817 165.374 193.086L159.263 189.557C158 188.821 155.948 188.821 154.686 189.552L153.921 189.991C152.658 190.722 152.663 191.906 153.926 192.637L160.037 196.171C161.3 196.902 163.352 196.907 164.62 196.176L165.374 195.732ZM178.361 203.235C179.629 202.504 179.624 201.319 178.361 200.589L172.255 197.06C170.982 196.324 168.935 196.329 167.673 197.06L166.908 197.499C165.641 198.229 165.645 199.414 166.913 200.145L173.024 203.679C174.287 204.409 176.339 204.409 177.602 203.679L178.361 203.235ZM191.348 210.743C192.611 210.007 192.611 208.822 191.348 208.092L185.237 204.558C183.974 203.827 181.927 203.827 180.655 204.558L179.89 204.997C178.628 205.727 178.628 206.912 179.89 207.643L186.002 211.172C187.264 211.902 189.316 211.907 190.584 211.177L191.348 210.743ZM204.335 218.24C205.598 217.51 205.598 216.325 204.335 215.595L198.224 212.065C196.961 211.33 194.91 211.335 193.642 212.065L192.882 212.51C191.62 213.24 191.62 214.425 192.882 215.155L198.994 218.685C200.261 219.415 202.308 219.415 203.576 218.685L204.335 218.24ZM217.322 225.748C218.585 225.018 218.585 223.833 217.318 223.098L211.211 219.568C209.944 218.838 207.892 218.838 206.629 219.568L205.869 220.013C204.607 220.743 204.607 221.928 205.869 222.658L211.981 226.193C213.243 226.923 215.29 226.923 216.563 226.193L217.322 225.748ZM230.309 233.251C231.572 232.521 231.572 231.336 230.309 230.605L224.198 227.076C222.936 226.341 220.884 226.346 219.616 227.076L218.856 227.515C217.594 228.246 217.594 229.431 218.866 230.161L224.973 233.69C226.235 234.421 228.287 234.421 229.55 233.69L230.309 233.251ZM243.297 240.754C244.559 240.023 244.554 238.834 243.297 238.108L237.185 234.579C235.918 233.843 233.871 233.843 232.603 234.579L231.843 235.018C230.576 235.749 230.581 236.934 231.848 237.664L237.955 241.198C239.222 241.929 241.274 241.934 242.537 241.198L243.297 240.754ZM256.284 248.257C257.546 247.526 257.546 246.342 256.284 245.611L250.177 242.077C248.91 241.346 246.858 241.346 245.595 242.077L244.831 242.516C243.568 243.247 243.568 244.431 244.835 245.162L250.942 248.696C252.209 249.427 254.256 249.427 255.524 248.696L256.284 248.257ZM269.271 255.76C270.533 255.029 270.533 253.845 269.271 253.114L263.159 249.58C261.892 248.849 259.84 248.849 258.577 249.58L257.818 250.024C256.55 250.755 256.555 251.939 257.818 252.67L263.929 256.204C265.192 256.935 267.243 256.935 268.506 256.204L269.271 255.76ZM282.258 263.263C283.52 262.532 283.52 261.343 282.253 260.617L276.142 257.083C274.879 256.352 272.827 256.352 271.554 257.083L270.8 257.527C269.537 258.257 269.537 259.442 270.8 260.173L276.911 263.702C278.174 264.433 280.231 264.433 281.493 263.707L282.258 263.263ZM295.245 270.766C296.508 270.035 296.503 268.85 295.24 268.115L289.134 264.586C287.871 263.855 285.819 263.85 284.551 264.586L283.792 265.025C282.524 265.755 282.529 266.94 283.792 267.671L289.903 271.2C291.171 271.93 293.218 271.93 294.485 271.2L295.245 270.766ZM122.955 210.012C124.223 209.281 124.218 208.097 122.955 207.366L116.844 203.837C115.577 203.106 113.53 203.101 112.262 203.832L106.156 207.361C104.893 208.092 104.893 209.276 106.161 210.007L112.272 213.536C113.534 214.267 115.586 214.267 116.854 213.536L122.955 210.012ZM135.942 217.52C137.205 216.789 137.205 215.605 135.942 214.874L129.831 211.345C128.564 210.614 126.517 210.614 125.249 211.345L119.148 214.869C117.885 215.6 117.885 216.784 119.148 217.52L125.259 221.049C126.526 221.78 128.573 221.78 129.841 221.049L135.942 217.52ZM148.93 225.023C150.192 224.287 150.192 223.103 148.925 222.377L142.813 218.843C141.551 218.112 139.499 218.112 138.231 218.843L132.13 222.367C130.862 223.098 130.862 224.277 132.13 225.013L138.241 228.542C139.509 229.273 141.56 229.273 142.823 228.542L148.93 225.023ZM161.917 232.526C163.179 231.795 163.179 230.61 161.912 229.88L155.8 226.35C154.538 225.615 152.486 225.615 151.218 226.35L145.117 229.875C143.854 230.605 143.854 231.795 145.122 232.526L151.233 236.055C152.496 236.785 154.548 236.785 155.815 236.055L161.917 232.526ZM174.899 240.028C176.166 239.298 176.161 238.113 174.899 237.383L168.787 233.848C167.525 233.118 165.473 233.118 164.21 233.848L158.104 237.378C156.836 238.108 156.836 239.293 158.104 240.024L164.215 243.558C165.483 244.283 167.53 244.288 168.797 243.553L174.899 240.028ZM187.891 247.531C189.158 246.801 189.153 245.611 187.891 244.886L181.779 241.351C180.517 240.621 178.465 240.621 177.197 241.351L171.091 244.881C169.828 245.611 169.828 246.796 171.091 247.526L177.202 251.056C178.47 251.786 180.522 251.791 181.784 251.061L187.891 247.531ZM200.878 255.034C202.145 254.304 202.136 253.119 200.873 252.388L194.762 248.859C193.494 248.124 191.442 248.124 190.179 248.859L184.078 252.384C182.815 253.114 182.815 254.294 184.078 255.024L190.189 258.559C191.452 259.289 193.504 259.289 194.771 258.559L200.878 255.034ZM213.865 262.537C215.132 261.807 215.128 260.622 213.865 259.886L207.754 256.357C206.491 255.627 204.439 255.627 203.176 256.357L197.07 259.881C195.802 260.617 195.807 261.797 197.07 262.532L203.181 266.061C204.444 266.792 206.496 266.797 207.763 266.066L213.865 262.537ZM156.17 214.218C157.433 213.492 157.433 212.302 156.165 211.572L150.054 208.042C148.791 207.312 146.74 207.312 145.472 208.042L139.37 211.567C138.108 212.297 138.103 213.482 139.37 214.218L145.482 217.747C146.749 218.477 148.801 218.477 150.064 217.747L156.17 214.218ZM169.157 221.72C170.42 220.99 170.42 219.805 169.152 219.075L163.046 215.54C161.783 214.81 159.732 214.81 158.469 215.54L152.362 219.065C151.1 219.795 151.095 220.98 152.367 221.715L158.479 225.245C159.741 225.975 161.793 225.975 163.061 225.245L169.157 221.72ZM182.144 229.223C183.407 228.493 183.407 227.308 182.144 226.582L176.033 223.048C174.766 222.318 172.719 222.318 171.451 223.048L165.345 226.568C164.082 227.298 164.082 228.488 165.35 229.218L171.461 232.748C172.724 233.478 174.775 233.478 176.043 232.748L182.144 229.223ZM195.131 236.726C196.399 235.996 196.394 234.811 195.131 234.08L189.015 230.546C187.753 229.816 185.701 229.816 184.438 230.546L178.332 234.071C177.069 234.806 177.069 235.986 178.332 236.721L184.443 240.256C185.706 240.981 187.758 240.986 189.02 240.256L195.131 236.726ZM208.119 244.229C209.381 243.499 209.376 242.314 208.119 241.583L202.007 238.054C200.74 237.323 198.693 237.319 197.425 238.054L191.319 241.578C190.056 242.309 190.056 243.494 191.319 244.224L197.43 247.753C198.688 248.484 200.745 248.489 202.012 247.753L208.119 244.229ZM221.106 251.732C222.368 251.001 222.363 249.817 221.101 249.086L214.989 245.557C213.722 244.826 211.68 244.821 210.412 245.557L204.306 249.081C203.043 249.812 203.043 250.996 204.306 251.732L210.417 255.266C211.68 255.997 213.732 255.997 214.994 255.266L221.106 251.732ZM234.093 259.235C235.355 258.504 235.355 257.32 234.093 256.589L227.981 253.06C226.719 252.324 224.667 252.329 223.399 253.055L217.293 256.584C216.03 257.315 216.03 258.499 217.298 259.23L223.404 262.764C224.667 263.495 226.724 263.495 227.986 262.764L234.093 259.235ZM247.08 266.738C248.342 266.007 248.338 264.823 247.075 264.092L240.964 260.563C239.701 259.832 237.649 259.832 236.381 260.563L230.28 264.092C229.017 264.823 229.017 266.007 230.28 266.738L236.391 270.267C237.654 270.998 239.711 271.003 240.973 270.272L247.08 266.738ZM274.642 282.667C275.905 281.936 275.9 280.751 274.642 280.021L253.951 268.066C252.683 267.335 250.636 267.335 249.373 268.061L243.267 271.59C242.004 272.316 242.004 273.505 243.267 274.236L263.958 286.191C265.221 286.921 267.273 286.921 268.541 286.191L274.642 282.667ZM261.67 290.16C262.937 289.429 262.933 288.244 261.67 287.514L255.559 283.98C254.296 283.249 252.244 283.249 250.981 283.98L244.875 287.504C243.612 288.234 243.607 289.419 244.875 290.15L250.986 293.679C252.249 294.41 254.306 294.414 255.568 293.679L261.67 290.16ZM248.702 297.658C249.965 296.927 249.96 295.742 248.698 295.012L242.586 291.482C241.319 290.752 239.272 290.747 238.009 291.482L231.903 295.007C230.645 295.737 230.645 296.922 231.908 297.653L238.024 301.182C239.287 301.912 241.333 301.912 242.601 301.182L248.702 297.658ZM235.715 290.155C236.978 289.424 236.973 288.239 235.711 287.504L229.599 283.975C228.332 283.244 226.28 283.244 225.022 283.975L218.916 287.504C217.653 288.234 217.653 289.419 218.916 290.15L225.027 293.684C226.29 294.414 228.341 294.419 229.609 293.684L235.715 290.155ZM248.688 282.657C249.95 281.926 249.945 280.737 248.688 280.011L242.576 276.477C241.309 275.746 239.262 275.746 237.989 276.477L231.888 280.001C230.625 280.732 230.62 281.916 231.888 282.647L237.999 286.181C239.262 286.912 241.314 286.917 242.581 286.181L248.688 282.657ZM222.728 282.647C223.991 281.916 223.986 280.732 222.728 280.001L216.612 276.472C215.349 275.741 213.298 275.741 212.035 276.472L205.929 279.996C204.666 280.727 204.666 281.911 205.929 282.642L212.04 286.171C213.303 286.902 215.359 286.902 216.622 286.171L222.728 282.647ZM117.209 191.704C118.477 190.973 118.472 189.789 117.209 189.058L101.549 180.01C100.286 179.28 98.2341 179.275 96.9714 180.01L90.8651 183.535C89.6024 184.265 89.5975 185.45 90.8651 186.18L106.526 195.233C107.788 195.964 109.845 195.964 111.108 195.233L117.209 191.704ZM130.196 199.207C131.459 198.476 131.459 197.292 130.191 196.561L124.08 193.032C122.817 192.301 120.765 192.301 119.503 193.032L113.396 196.561C112.134 197.292 112.134 198.476 113.396 199.207L119.508 202.736C120.77 203.467 122.827 203.467 124.09 202.736L130.196 199.207ZM143.183 206.715C144.451 205.984 144.446 204.799 143.183 204.069L137.072 200.54C135.804 199.809 133.757 199.809 132.49 200.54L126.383 204.064C125.121 204.794 125.121 205.979 126.383 206.71L132.495 210.239C133.757 210.975 135.814 210.975 137.077 210.239L143.183 206.715ZM189.385 218.418C190.653 217.683 190.648 216.498 189.38 215.772L183.269 212.243C182.006 211.508 179.954 211.508 178.692 212.238L172.585 215.767C171.323 216.503 171.328 217.683 172.595 218.413L178.707 221.947C179.969 222.678 182.021 222.683 183.284 221.947L189.385 218.418ZM202.372 225.926C203.64 225.19 203.635 224.006 202.367 223.28L196.256 219.746C194.993 219.015 192.941 219.015 191.679 219.741L185.572 223.27C184.305 224.001 184.31 225.186 185.577 225.916L191.684 229.445C192.951 230.176 195.003 230.181 196.266 229.45L202.372 225.926ZM215.359 233.424C216.622 232.698 216.622 231.509 215.359 230.778L209.248 227.249C207.985 226.518 205.933 226.518 204.671 227.249L198.564 230.773C197.302 231.504 197.302 232.684 198.564 233.419L204.676 236.953C205.938 237.679 207.99 237.684 209.253 236.953L215.359 233.424ZM228.346 240.932C229.614 240.201 229.609 239.017 228.341 238.286L222.23 234.757C220.963 234.026 218.916 234.026 217.653 234.752L211.547 238.281C210.279 239.012 210.284 240.191 211.547 240.927L217.658 244.461C218.921 245.192 220.972 245.192 222.24 244.461L228.346 240.932ZM241.333 248.435C242.601 247.704 242.596 246.519 241.329 245.784L235.217 242.25C233.955 241.524 231.903 241.524 230.64 242.25L224.534 245.779C223.271 246.51 223.271 247.694 224.539 248.425L230.645 251.954C231.913 252.685 233.964 252.685 235.227 251.954L241.333 248.435ZM254.321 255.938C255.583 255.207 255.583 254.022 254.321 253.292L248.214 249.762C246.947 249.032 244.895 249.027 243.632 249.758L237.526 253.287C236.268 254.012 236.268 255.197 237.535 255.933L243.642 259.462C244.909 260.192 246.961 260.197 248.224 259.467L254.321 255.938ZM267.308 263.44C268.57 262.715 268.57 261.525 267.303 260.795L261.196 257.265C259.929 256.53 257.877 256.53 256.614 257.26L250.513 260.785C249.25 261.52 249.255 262.7 250.513 263.431L256.624 266.965C257.892 267.695 259.943 267.7 261.201 266.97L267.308 263.44ZM287.614 275.174C288.872 274.443 288.872 273.253 287.609 272.523L274.178 264.763C272.911 264.033 270.864 264.028 269.596 264.758L263.49 268.288C262.227 269.018 262.232 270.203 263.495 270.928L276.931 278.693C278.193 279.424 280.245 279.424 281.508 278.693L287.614 275.174ZM163.411 203.412C164.674 202.682 164.669 201.497 163.406 200.767L157.295 197.237C156.032 196.507 153.975 196.507 152.713 197.237L146.611 200.762C145.349 201.492 145.349 202.677 146.616 203.407L152.727 206.937C153.995 207.672 156.042 207.672 157.31 206.942L163.411 203.412ZM176.398 210.915C177.666 210.185 177.661 209 176.398 208.265L170.287 204.735C169.024 204.005 166.972 204.005 165.71 204.735L159.603 208.265C158.341 208.99 158.346 210.18 159.608 210.905L165.719 214.44C166.982 215.17 169.034 215.17 170.302 214.44L176.398 210.915ZM124.455 180.904C125.718 180.173 125.718 178.984 124.45 178.258L114.521 172.522C113.253 171.792 111.206 171.792 109.939 172.517L103.832 176.047C102.57 176.777 102.57 177.962 103.837 178.692L113.766 184.428C115.029 185.159 117.081 185.159 118.344 184.428L124.455 180.904ZM137.442 188.407C138.705 187.671 138.705 186.491 137.437 185.761L131.326 182.232C130.058 181.501 128.011 181.496 126.743 182.232L120.642 185.756C119.379 186.486 119.379 187.671 120.642 188.402L126.753 191.931C128.016 192.662 130.073 192.662 131.336 191.931L137.442 188.407ZM150.424 195.91C151.687 195.179 151.687 193.994 150.424 193.264L144.308 189.734C143.045 189.004 140.993 188.999 139.731 189.734L133.624 193.259C132.362 193.989 132.362 195.174 133.629 195.905L139.74 199.434C141.003 200.164 143.055 200.169 144.318 199.434L150.424 195.91Z" fill="#CEE1FD"/>
<path opacity="0.2" d="M138.28 293.136C136.386 294.237 133.308 294.232 131.409 293.136L79.017 262.863C77.118 261.767 77.118 259.99 79.017 258.894L112.296 239.663C114.195 238.567 117.273 238.572 119.167 239.668L171.559 269.936C173.463 271.037 173.463 272.814 171.569 273.91L138.28 293.136Z" fill="black"/>
<path opacity="0.2" d="M79.0126 260.217L112.297 240.986C114.196 239.89 117.273 239.895 119.167 240.986L171.56 271.259C172.216 271.639 172.63 272.098 172.832 272.587C173.217 271.664 172.808 270.657 171.56 269.936L119.167 239.663C117.268 238.567 114.196 238.562 112.297 239.658L79.0175 258.889C77.7746 259.61 77.3602 260.617 77.745 261.535C77.9472 261.056 78.3615 260.597 79.0126 260.217Z" fill="black"/>
<path d="M304.829 280.845C304.824 281.349 304.474 281.956 304.04 282.207L293.144 288.501C292.71 288.753 292.355 288.55 292.355 288.052C292.355 287.543 292.71 286.931 293.144 286.68L304.03 280.396C304.469 280.144 304.829 280.346 304.829 280.845ZM308.217 277.977C307.783 278.229 307.428 278.841 307.428 279.344C307.423 279.848 307.778 280.05 308.212 279.799C308.646 279.552 309.002 278.935 308.997 278.436C309.002 277.928 308.647 277.73 308.217 277.977ZM311.093 276.319C310.659 276.57 310.309 277.177 310.309 277.681C310.309 278.184 310.654 278.387 311.098 278.135C311.527 277.888 311.882 277.276 311.882 276.778C311.872 276.274 311.527 276.067 311.093 276.319ZM227.316 325.63C227.316 326.129 226.956 326.741 226.527 326.993L215.636 333.286C215.202 333.538 214.847 333.336 214.842 332.837C214.847 332.334 215.202 331.721 215.636 331.47L226.522 325.181C226.956 324.929 227.316 325.127 227.316 325.63Z" fill="#CEE1FD"/>
<path opacity="0.3" d="M158.469 29.4735V25.5049L283.111 97.5227V101.491L158.469 29.4735ZM280.561 231.977C276.344 249.333 265.645 257.423 239.819 272.345L168.778 313.004L45.5657 241.81L44.8555 240.581L90.1154 214.43C111.941 201.818 131.395 178.697 143.918 153.024L280.561 231.977Z" fill="black"/>
<path d="M283.116 101.486L158.469 29.4734L158.474 96.0319C158.474 114.345 153.023 134.356 143.918 153.019L280.561 231.972C282.563 223.729 283.111 213.408 283.111 199.256L283.116 101.486Z" fill="#CEE1FD"/>
<path d="M200.419 282.785C238.512 260.775 269.493 207.114 269.483 163.158L269.493 71.8055L146.276 0.616943H144.856V91.9695C144.856 135.471 114.191 188.584 76.4972 210.367L31.2373 236.519L31.9476 237.748L155.164 308.941L200.419 282.785Z" fill="white"/>
<path d="M155.159 309.548C155.056 309.548 154.947 309.519 154.853 309.464L31.6365 238.271C31.5428 238.217 31.4639 238.138 31.4146 238.049L30.7043 236.82C30.6205 236.677 30.6007 236.514 30.6451 236.356C30.6895 236.198 30.7882 236.064 30.9312 235.985L76.1911 209.834C113.712 188.15 144.244 135.279 144.244 91.9696V0.612078C144.244 0.449186 144.308 0.29123 144.421 0.1777C144.535 0.0641694 144.693 0 144.855 0H146.276C146.384 0 146.488 0.0296167 146.582 0.0839139L269.798 71.2774C269.986 71.386 270.104 71.5884 270.104 71.8105L270.094 163.163C270.104 207.312 238.986 261.214 200.72 283.323L200.414 282.79L200.72 283.323L155.46 309.474C155.371 309.524 155.268 309.548 155.159 309.548ZM32.3912 237.294L155.159 308.23L200.113 282.257C238.039 260.345 268.881 206.922 268.871 163.158L268.881 72.161L146.108 1.22909H145.462V91.9646C145.462 135.664 114.654 189.013 76.7978 210.89L32.0706 236.736L32.3912 237.294Z" fill="#004CC2"/>
<path d="M205.169 89.2548V51.5676C205.164 50.6446 204.424 49.4698 203.63 49.0107C193.331 43.0627 183.738 34.6467 178.573 27.0352C178.051 26.2701 177.321 25.8456 176.798 26.0134C171.638 27.6571 162.05 24.9867 151.667 18.9893C151.277 18.7277 150.907 18.6981 150.641 18.8511C150.375 19.0091 150.202 19.3447 150.202 19.8136V57.4959C150.202 74.9747 175.994 103.407 177.094 104.611C177.281 104.813 177.483 104.981 177.686 105.1C177.888 105.218 178.09 105.282 178.273 105.292C178.988 105.337 190.125 105.929 197.839 101.541C197.839 101.541 197.835 101.546 197.83 101.546C201.998 99.1813 205.169 95.3756 205.169 89.2548Z" fill="#CEE1FD"/>
<path d="M152.437 110.741C152.521 110.243 152.609 109.744 152.688 109.246L200.972 137.105C200.922 137.624 200.873 138.137 200.809 138.66L152.437 110.741ZM211.438 113.466V115.11L246.498 135.328V133.684L211.438 113.466ZM195.319 119.202L154.03 95.3803C154.01 95.9134 153.99 96.4514 153.966 96.9895L195.324 120.846L195.319 119.202ZM189.159 108.12L154.099 87.9021V89.5458L189.159 109.764V108.12ZM211.438 120.984V122.633L240.337 139.292V137.648L211.438 120.984ZM201.48 107.721L154.099 80.3844V82.0281L201.48 109.364V107.721ZM175.92 202.385C176.186 201.99 176.453 201.6 176.719 201.201L127.281 172.66C127.02 173.06 126.744 173.445 126.482 173.845L175.92 202.385ZM167.856 188.668C168.102 188.258 168.344 187.848 168.586 187.444L131.43 166.001C131.183 166.411 130.946 166.821 130.7 167.225L167.856 188.668ZM154.079 240.976L183.841 258.158C184.266 257.857 184.685 257.551 185.104 257.24L155.268 240.013C154.873 240.344 154.474 240.655 154.079 240.976ZM163.668 166.485L138.868 152.18C138.661 152.61 138.448 153.034 138.241 153.463L163.041 167.763C163.249 167.339 163.466 166.914 163.668 166.485ZM160.728 235.25C160.358 235.59 159.988 235.921 159.618 236.252L202.037 260.745C202.422 260.424 202.802 260.093 203.186 259.768L160.728 235.25ZM112.331 192.227L142.976 209.918C143.307 209.567 143.627 209.202 143.958 208.842L113.283 191.136C112.968 191.501 112.652 191.861 112.331 192.227ZM122.842 179.082C122.566 179.467 122.29 179.862 122.014 180.247L165.217 205.189C165.503 204.804 165.799 204.429 166.085 204.044L122.842 179.082ZM205.347 226.705L180.798 212.544C180.522 212.929 180.246 213.319 179.96 213.699L204.484 227.846C204.77 227.466 205.066 227.09 205.347 226.705ZM185.247 206.122C184.986 206.522 184.715 206.912 184.448 207.307L221.357 228.611C221.619 228.216 221.885 227.826 222.152 227.426L185.247 206.122ZM189.405 199.473C189.164 199.883 188.922 200.287 188.675 200.692L237.93 229.129C238.177 228.724 238.419 228.315 238.66 227.905L189.405 199.473ZM118.176 185.252C117.875 185.627 117.574 185.997 117.274 186.377L166.558 214.829C166.864 214.459 167.17 214.089 167.476 213.714L118.176 185.252ZM170.203 225.644L219.182 253.928C219.518 253.573 219.843 253.212 220.174 252.857L171.18 224.568C170.864 224.933 170.534 225.284 170.203 225.644ZM166.04 230.087C165.7 230.437 165.365 230.798 165.019 231.143L201.504 252.205C201.86 251.87 202.21 251.514 202.565 251.169L166.04 230.087ZM153.571 102.271C153.517 102.789 153.468 103.303 153.408 103.821L176.754 117.277C176.778 116.729 176.773 116.196 176.788 115.653L153.571 102.271ZM124.564 259.531L123.143 260.355L170.524 287.726L171.949 286.906L124.564 259.531ZM190.905 174.901C191.092 174.462 191.28 174.022 191.462 173.578L142.103 145.087C141.916 145.526 141.733 145.966 141.546 146.405L190.905 174.901ZM108.094 257.536L60.7086 230.161L59.288 230.985L106.674 258.361L108.094 257.536ZM131.074 255.769L129.649 256.594L164.714 276.846L166.134 276.027L131.074 255.769ZM137.58 252.013L136.16 252.832L177.39 276.644L178.815 275.825L137.58 252.013ZM211.438 105.944V107.587L234.177 120.688V119.044L211.438 105.944ZM146.957 279.986L118.058 263.292L116.637 264.116L145.536 280.81L146.957 279.986ZM158.933 294.424L111.552 267.048L110.126 267.873L157.512 295.248L158.933 294.424ZM89.2673 254.175L54.2076 233.922L52.7871 234.741L87.8517 254.999L89.2673 254.175ZM176.098 218.699C175.797 219.074 175.496 219.449 175.195 219.82L218.132 244.609C218.442 244.239 218.758 243.878 219.064 243.503L176.098 218.699ZM142.592 249.056L190.032 276.457L191.457 275.632L143.983 248.212C143.524 248.503 143.055 248.775 142.592 249.056ZM211.438 60.8226V62.4663L252.659 86.2386V84.5949L211.438 60.8226ZM211.438 68.3403V69.984L246.498 90.1925V88.5487L211.438 68.3403ZM211.438 75.8629V77.5067L258.819 104.838L258.824 103.194L211.438 75.8629ZM187.413 138.764C187.501 138.265 187.595 137.772 187.674 137.278L151.362 116.324C151.258 116.813 151.154 117.297 151.046 117.785L187.413 138.764ZM211.438 98.4209V100.065L258.819 127.401V125.757L211.438 98.4209ZM211.443 83.3856V85.0293L252.664 108.802V107.153L211.443 83.3856ZM190.027 156.889C190.17 156.42 190.303 155.951 190.441 155.482L147.504 130.703C147.356 131.162 147.213 131.626 147.06 132.09L190.027 156.889ZM211.438 54.9437L258.819 82.27V80.6263L211.438 53.3V54.9437ZM181.913 159.219L144.994 137.92C144.826 138.369 144.648 138.813 144.476 139.262L181.434 160.586C181.597 160.132 181.75 159.673 181.913 159.219ZM195.946 58.7692V59.5935C195.265 59.1986 194.713 59.0209 194.293 59.0555C193.874 59.095 193.47 59.3862 193.085 59.9341C192.823 60.3043 192.424 61.3063 191.871 62.9353L184.611 82.9709L183.841 82.5316L177.908 59.8798L172.009 75.7L171.318 75.2953L163.579 45.8563C163.002 43.6647 162.637 42.3517 162.479 41.9222C162.223 41.2114 161.877 40.5944 161.434 40.0663C160.99 39.5381 160.393 39.0544 159.633 38.62V37.7957L169.281 43.3685V44.1879L168.822 43.9214C168.142 43.5265 167.629 43.408 167.269 43.5512C166.908 43.6992 166.731 44.025 166.731 44.5285C166.731 45.0468 167.012 46.3993 167.574 48.5811L172.704 68.4193L177.025 56.5726L176.255 53.6011L175.644 51.2268C175.373 50.3334 175.077 49.509 174.741 48.7538C174.573 48.3787 174.366 48.0233 174.13 47.6876C173.809 47.2384 173.488 46.8633 173.168 46.5572C172.926 46.3302 172.536 46.0636 172.014 45.7576V44.9382L182.155 50.8023V51.6217L181.464 51.2219C180.744 50.8122 180.221 50.6838 179.891 50.8418C179.555 51.0047 179.388 51.3897 179.388 51.9968C179.388 52.7521 179.674 54.2329 180.251 56.4393L185.247 75.6655L190.199 61.9678C190.762 60.4623 191.043 59.3516 191.043 58.6458C191.043 58.3052 190.949 57.935 190.762 57.5352C190.579 57.1304 190.347 56.7898 190.066 56.5084C189.573 56.0198 188.947 55.5508 188.162 55.0967V54.2773L195.946 58.7692ZM211.113 135.476C209.801 152.318 204.434 170.152 196.207 186.925L245.438 215.343C253.783 198.071 258.819 179.699 258.819 163.158V163.01L211.113 135.476ZM135.612 241.637C141.161 238.429 146.547 234.514 151.702 230.037L102.96 201.892C96.0592 208.383 88.7198 213.98 81.114 218.373L72.2998 223.467L119.69 250.843L135.612 241.637Z" fill="#CEE1FD"/>
<path d="M91.2009 324.164L23.5182 285.06C21.5897 283.945 18.4576 283.945 16.5241 285.06L4.67145 291.912C2.73794 293.027 2.73794 294.834 4.66652 295.954L72.3492 335.058C74.2827 336.174 77.4098 336.174 79.3433 335.058L91.196 328.207C93.1295 327.086 93.1344 325.285 91.2009 324.164Z" fill="#CEE1FD"/>
<path d="M22.9015 281.225L27.0201 270.622L22.9015 264.773L14.6693 269.526L10.5557 280.134L14.6693 285.988L22.9015 281.225Z" fill="#EDEDEF"/>
<path d="M22.9019 264.773L14.5168 259.926L6.27965 264.679L2.16602 275.292L6.27965 281.141L14.6697 285.988L10.5561 280.134L14.6697 269.526L22.9019 264.773Z" fill="white"/>
<g opacity="0.5">
<path opacity="0.5" d="M2.16602 275.292L10.5561 280.134L14.6697 269.526L6.27965 264.679L2.16602 275.292Z" fill="#CEE1FD"/>
</g>
<path d="M6.27965 281.141L14.6697 285.988L10.5561 280.134L2.16602 275.292L6.27965 281.141Z" fill="#CEE1FD"/>
<path d="M14.6694 286.6C14.5659 286.6 14.4573 286.576 14.3636 286.516L5.97358 281.669C5.89466 281.625 5.83054 281.565 5.78121 281.491L1.66758 275.642C1.5492 275.474 1.52454 275.257 1.59852 275.07L5.71216 264.457C5.76148 264.329 5.8552 264.215 5.97851 264.146L14.2107 259.392C14.3982 259.284 14.6349 259.284 14.8223 259.392L23.2124 264.24C23.3998 264.348 23.5182 264.551 23.5182 264.773C23.5182 264.99 23.3998 265.192 23.2124 265.306L15.1676 269.951L11.2513 280.05L15.1775 285.633C15.3452 285.87 15.3205 286.186 15.1281 286.398C15.0048 286.531 14.8371 286.6 14.6694 286.6ZM6.70358 280.677L12.5682 284.063L10.0527 280.484C9.93431 280.317 9.90965 280.099 9.98363 279.907L14.0973 269.299C14.1466 269.171 14.2403 269.062 14.3636 268.988L21.6784 264.763L14.5165 260.627L6.77756 265.099L2.86122 275.203L6.70358 280.677Z" fill="#004CC2"/>
<path d="M22.9015 281.225L27.0201 270.622L22.9015 264.773L14.6693 269.526L10.5557 280.134L14.6693 285.988L22.9015 281.225Z" fill="#EDEDEF"/>
<path d="M81.2027 298.457L22.9015 264.773L14.6693 269.526L10.5557 280.134L14.6693 285.988L72.9754 319.672L68.8519 313.823L72.9754 303.215L81.2027 298.457Z" fill="#4540EA"/>
<path opacity="0.2" d="M68.8519 313.823L10.5557 280.134L14.6693 269.526L72.9754 303.215L68.8519 313.823Z" fill="black"/>
<path opacity="0.3" d="M72.9754 319.672L14.6693 285.988L10.5557 280.134L68.8519 313.823L72.9754 319.672Z" fill="black"/>
<path d="M72.9703 320.284C72.8667 320.284 72.7582 320.26 72.6645 320.2L14.3633 286.516C14.2844 286.472 14.2202 286.413 14.166 286.339L10.0523 280.484C9.93396 280.317 9.9093 280.099 9.98329 279.907L14.0969 269.299C14.1462 269.171 14.24 269.062 14.3633 268.988L22.5955 264.235C22.7829 264.126 23.0197 264.126 23.2071 264.235L81.5034 297.919C81.6908 298.027 81.8092 298.23 81.8092 298.452C81.8092 298.669 81.6908 298.871 81.5034 298.985L73.4586 303.635L69.5373 313.734L73.4685 319.317C73.6362 319.554 73.6164 319.87 73.4191 320.082C73.3057 320.215 73.1429 320.284 72.9703 320.284ZM15.0933 285.524L70.8691 317.752L68.3535 314.178C68.2352 314.01 68.2105 313.793 68.2845 313.601L72.4031 302.993C72.4524 302.865 72.5461 302.756 72.6694 302.682L79.9792 298.457L22.9013 265.479L15.1623 269.951L11.246 280.05L15.0933 285.524Z" fill="#004CC2"/>
<path d="M92.0938 318.833L93.391 315.486L92.0938 313.645L89.5043 315.141L88.207 318.487L89.5043 320.324L92.0938 318.833Z" fill="#EDEDEF"/>
<path d="M92.0941 313.645L81.2033 298.457L72.976 303.215L68.8525 313.823L72.976 319.672L89.5046 320.324L88.2074 318.488L89.5046 315.141L92.0941 313.645Z" fill="white"/>
<g opacity="0.5">
<path opacity="0.5" d="M88.2073 318.488L68.8525 313.823L72.976 303.215L89.5046 315.141L88.2073 318.488Z" fill="#CEE1FD"/>
</g>
<path d="M89.5046 320.324L72.976 319.672L68.8525 313.823L88.2073 318.487L89.5046 320.324Z" fill="#CEE1FD"/>
<path d="M89.5043 320.936C89.4945 320.936 89.4895 320.936 89.4797 320.936L72.9511 320.284C72.7587 320.275 72.5861 320.181 72.4727 320.023L68.3541 314.173C68.2357 314.006 68.2111 313.788 68.285 313.596L72.4036 302.988C72.4529 302.86 72.5467 302.751 72.67 302.677L80.8972 297.919C81.1685 297.761 81.5187 297.835 81.7012 298.092L92.592 313.28C92.6907 313.423 92.7301 313.596 92.6956 313.769C92.6611 313.937 92.5526 314.085 92.4046 314.169L90.0025 315.561L88.9026 318.394L90.0124 319.964C90.1455 320.156 90.1603 320.403 90.0518 320.61C89.9334 320.817 89.7263 320.936 89.5043 320.936ZM73.3013 319.07L88.286 319.662L87.704 318.843C87.5856 318.675 87.5609 318.458 87.6349 318.266L88.9322 314.924C88.9815 314.795 89.0752 314.687 89.1985 314.618L91.2011 313.458L81.0304 299.271L73.469 303.645L69.5477 313.744L73.3013 319.07Z" fill="#004CC2"/>
<path d="M97.4898 319.48L97.919 320.097L97.4849 321.217L96.6168 321.721L89.5043 320.324L88.207 318.487L89.5043 315.141L92.0938 313.645L97.4898 319.48Z" fill="#4540EA"/>
<path opacity="0.2" d="M96.1877 321.099L96.6217 319.983L89.5043 315.141L88.207 318.487L96.1877 321.099Z" fill="black"/>
<path opacity="0.3" d="M96.6168 321.721L96.1877 321.099L88.207 318.488L89.5043 320.324L96.6168 321.721Z" fill="black"/>
<path d="M96.6166 322.332C96.5771 322.332 96.5377 322.328 96.4982 322.323L89.3857 320.926C89.2328 320.896 89.0947 320.807 89.0009 320.679L87.7037 318.843C87.5853 318.675 87.5607 318.458 87.6347 318.265L88.9319 314.923C88.9812 314.795 89.0749 314.686 89.1982 314.617L91.7877 313.117C92.0344 312.974 92.35 313.018 92.5473 313.23L97.9434 319.065C97.9631 319.085 97.9779 319.104 97.9977 319.129L98.4317 319.746C98.5501 319.914 98.5748 320.131 98.5008 320.319L98.0667 321.439C98.0174 321.567 97.9237 321.681 97.8004 321.75L96.9323 322.249C96.8287 322.303 96.7202 322.332 96.6166 322.332ZM89.8641 319.771L96.513 321.074L96.9964 320.797L97.2331 320.18L97.0112 319.864L91.9752 314.42L89.9973 315.565L88.8974 318.398L89.8641 319.771Z" fill="#004CC2"/>
<path d="M335.414 230.013C335.414 232.047 333.989 232.866 332.228 231.849L295.777 210.787C294.016 209.77 292.591 207.297 292.596 205.268L292.591 145.373C292.596 143.345 294.021 142.52 295.777 143.537L332.228 164.605C333.989 165.616 335.414 168.084 335.409 170.118L335.414 230.013Z" fill="white"/>
<path d="M333.654 232.9C333.111 232.9 332.519 232.728 331.922 232.382L295.472 211.32C293.514 210.189 291.98 207.529 291.98 205.268L291.975 145.378C291.975 144.169 292.419 143.251 293.218 142.787C294.017 142.328 295.038 142.407 296.083 143.009L332.534 164.076C334.497 165.207 336.031 167.862 336.021 170.123L336.026 230.013C336.026 231.222 335.587 232.145 334.788 232.604C334.448 232.802 334.063 232.9 333.654 232.9ZM294.352 143.72C294.155 143.72 293.977 143.764 293.829 143.848C293.43 144.08 293.203 144.633 293.203 145.378L293.208 205.268C293.208 207.07 294.525 209.355 296.083 210.254L332.534 231.316C333.18 231.686 333.777 231.77 334.176 231.538C334.576 231.306 334.803 230.748 334.803 230.008L334.798 170.118C334.803 168.316 333.486 166.036 331.922 165.138L295.472 144.07C295.067 143.838 294.683 143.72 294.352 143.72Z" fill="#004CC2"/>
<path d="M329.214 215.002C329.214 215.491 328.869 215.688 328.45 215.441L299.565 198.753C299.141 198.511 298.801 197.918 298.796 197.43C298.796 196.946 299.141 196.748 299.565 196.995L328.45 213.684C328.869 213.926 329.209 214.518 329.214 215.002ZM323.897 218.991C323.897 219.479 323.557 219.677 323.132 219.435L299.56 205.811C299.136 205.569 298.796 204.977 298.796 204.488C298.791 204.005 299.136 203.807 299.56 204.049L323.137 217.673C323.557 217.91 323.897 218.507 323.897 218.991ZM318.59 212.396C318.59 211.912 318.249 211.32 317.83 211.078L299.565 200.52C299.141 200.278 298.801 200.475 298.801 200.959C298.801 201.448 299.141 202.04 299.565 202.282L317.83 212.84C318.249 213.077 318.59 212.885 318.59 212.396ZM329.209 202.657C329.209 203.146 328.869 203.338 328.445 203.096L299.556 186.407C299.136 186.161 298.796 185.573 298.796 185.084C298.796 184.596 299.136 184.398 299.56 184.64L328.445 201.329C328.869 201.576 329.209 202.168 329.209 202.657ZM323.902 206.645C323.902 207.134 323.562 207.331 323.142 207.085L299.56 193.461C299.141 193.219 298.801 192.627 298.801 192.138C298.801 191.649 299.141 191.452 299.565 191.699L323.137 205.322C323.557 205.564 323.897 206.157 323.902 206.645ZM318.59 200.051C318.59 199.562 318.249 198.965 317.83 198.728L299.565 188.169C299.141 187.928 298.801 188.13 298.801 188.609C298.806 189.102 299.141 189.69 299.565 189.937L317.83 200.485C318.249 200.737 318.59 200.534 318.59 200.051ZM314.003 163.445C308.646 160.359 304.31 162.857 304.305 169.032C304.305 175.212 308.646 182.735 314.007 185.83C319.359 188.925 323.7 186.417 323.7 180.237L314.007 174.64L314.003 163.445Z" fill="#4540EA"/>
<path d="M316.124 162.225V173.416L325.816 179.018C325.821 172.833 321.481 165.315 316.124 162.225Z" fill="#CEE1FD"/>
<path d="M140.643 25.6034L133.219 29.8929C132.948 30.0508 132.775 30.3865 132.78 30.8554V68.5377C132.78 86.0164 158.572 114.448 159.672 115.653C159.859 115.855 160.067 116.023 160.264 116.142C160.466 116.26 160.668 116.324 160.851 116.334C161.566 116.378 172.703 116.971 180.418 112.583L180.423 112.588L187.94 108.244C192.053 105.874 195.175 102.083 195.175 96.0071V58.3199C195.171 57.3969 194.426 56.227 193.632 55.763C183.333 49.82 173.739 41.3989 168.575 33.7875C168.052 33.0174 167.322 32.5979 166.799 32.7657C161.645 34.4094 152.051 31.739 141.674 25.7416C141.284 25.4701 140.914 25.4454 140.643 25.6034Z" fill="white"/>
<path d="M193.642 55.7582C183.343 49.8151 173.749 41.3941 168.585 33.7826C168.062 33.0126 167.332 32.593 166.809 32.7608C161.655 34.4046 152.062 31.7341 141.684 25.7368C141.284 25.4702 140.919 25.4455 140.648 25.6035L133.225 29.893C133.491 29.7399 133.861 29.7646 134.251 30.0312C144.633 36.0285 154.222 38.699 159.381 37.0553C159.904 36.8924 160.634 37.3119 161.157 38.077C166.316 45.6836 175.915 54.1046 186.214 60.0526C187.008 60.5116 187.752 61.6864 187.752 62.6095V100.297C187.752 106.417 184.581 110.223 180.418 112.588C180.423 112.588 180.423 112.583 180.428 112.583L180.433 112.588L187.95 108.244C192.063 105.874 195.186 102.084 195.186 96.0072V58.32C195.181 57.392 194.436 56.2222 193.642 55.7582Z" fill="#CEE1FD"/>
<path d="M162.785 116.991C161.65 116.991 160.935 116.951 160.821 116.941C160.535 116.926 160.244 116.833 159.958 116.665C159.712 116.522 159.465 116.319 159.228 116.068C158.118 114.853 132.169 86.2584 132.169 68.5328V30.8555C132.164 30.1842 132.435 29.6412 132.914 29.3648L140.337 25.0753C140.347 25.0704 140.362 25.0605 140.377 25.0556C140.865 24.794 141.457 24.8532 142.019 25.2284C152.18 31.0974 161.62 33.7678 166.622 32.1784C167.421 31.9267 168.412 32.44 169.093 33.442C174.208 40.9844 183.733 49.3314 193.948 55.23C194.964 55.8224 195.792 57.2045 195.797 58.3151V96.0023C195.797 101.58 193.272 105.865 188.295 108.747C188.28 108.757 188.265 108.767 188.251 108.772L180.734 113.116C180.704 113.136 180.674 113.145 180.64 113.16C174.593 116.561 166.474 116.991 162.785 116.991ZM140.919 26.1514L133.525 30.4211C133.456 30.4606 133.392 30.6087 133.392 30.8456V68.5279C133.392 85.7796 159.031 114.034 160.121 115.228C160.264 115.386 160.422 115.515 160.57 115.599C160.688 115.668 160.797 115.707 160.886 115.712C161.359 115.742 172.516 116.359 180.117 112.04C180.142 112.025 180.171 112.01 180.201 112L187.595 107.726C187.609 107.716 187.624 107.706 187.639 107.696C192.236 105.05 194.569 101.111 194.569 95.9924V58.3052C194.564 57.6339 193.962 56.6467 193.331 56.2765C182.968 50.2939 173.291 41.7989 168.077 34.1183C167.673 33.521 167.179 33.2791 166.992 33.3384C161.68 35.0315 151.864 32.3215 141.378 26.26C141.156 26.1169 141.013 26.0922 140.964 26.1267C140.944 26.1415 140.934 26.1465 140.919 26.1514Z" fill="#004CC2"/>
<path d="M160.269 82.9562L152.091 68.7994L154.345 67.5012L160.264 77.7535L169.152 72.6298L171.411 76.5343L160.269 82.9562Z" fill="#4540EA"/>
<path d="M160.269 82.956L152.096 68.7992L154.35 67.501L160.269 77.7533L167.831 73.3948C165.991 69.9 163.288 66.8001 160.269 65.0577C154.71 61.8443 150.207 64.4456 150.207 70.8576C150.212 77.2745 154.71 85.0736 160.269 88.2821C165.828 91.4955 170.331 88.8991 170.336 82.4821C170.336 80.9075 170.06 79.2441 169.572 77.5905L160.269 82.956Z" fill="#CEE1FD"/>
<path d="M94.5835 149.791C94.1741 149.386 93.8387 148.952 93.6217 148.473C92.8868 146.894 93.4589 145.294 94.9485 144.045C93.8239 143.177 92.4971 142.407 91.0026 141.77C88.8471 142.629 86.08 142.964 83.3524 142.54C80.6248 142.115 78.5088 141.029 77.3842 139.662C76.4668 139.726 75.5444 139.815 74.627 139.953C73.7095 140.092 72.8365 140.284 71.9931 140.496C72.2052 142.002 71.3173 143.552 69.3246 144.707C68.9596 144.919 68.5502 145.082 68.1408 145.25C67.9583 145.22 67.7857 145.176 67.6032 145.151C66.4983 144.983 65.3836 144.875 64.2788 144.801C63.8546 145.319 63.2923 145.798 62.6412 146.237C62.434 146.237 62.2318 146.257 62.0246 146.242C61.8767 146.439 61.7484 146.637 61.6202 146.839C60.3624 147.496 58.8334 147.994 57.0873 148.266C53.7974 148.779 50.463 148.374 47.8637 147.343C46.0633 148.113 44.4652 149.036 43.1088 150.087C44.9042 151.593 45.5947 153.518 44.7069 155.418C44.4406 155.991 44.041 156.519 43.5478 157.003C42.3985 158.138 40.6968 159.026 38.6992 159.574C38.9606 160.877 39.5525 162.141 40.4354 163.321C43.5823 163.173 46.818 163.79 49.2299 165.182C51.632 166.574 52.7024 168.435 52.4459 170.256C53.4718 170.513 54.5224 170.74 55.6273 170.913C56.7321 171.08 57.8419 171.189 58.9419 171.263C60.3032 169.614 62.8434 168.306 66.1333 167.793C69.4233 167.285 72.7625 167.684 75.357 168.721C77.1573 167.946 78.7653 167.028 80.1217 165.972C78.3213 164.471 77.6308 162.546 78.5186 160.641C78.6765 160.31 78.8836 159.994 79.1204 159.683C80.2697 160.201 81.1969 160.863 81.8184 161.618C82.7359 161.554 83.6533 161.465 84.5707 161.327C85.4882 161.184 86.3563 160.996 87.2096 160.779C86.9975 159.273 87.8853 157.728 89.878 156.568C91.8806 155.413 94.5638 154.905 97.173 155.023C97.908 154.041 98.3963 152.995 98.6133 151.914C96.9462 151.474 95.5404 150.734 94.5835 149.791ZM70.2322 162.102C70.1927 162.126 70.1582 162.151 70.1237 162.181C69.9708 162.279 69.8228 162.378 69.66 162.477C69.6058 162.506 69.5515 162.541 69.4923 162.576C69.3295 162.669 69.1668 162.763 68.9991 162.847C68.93 162.886 68.856 162.916 68.787 162.951C68.7722 162.956 68.7623 162.965 68.7475 162.965C68.6735 163.005 68.6045 163.04 68.5305 163.069C68.2148 163.217 67.8942 163.35 67.5588 163.469C65.0186 164.402 61.852 164.742 58.7248 164.259C56.4263 163.903 54.4978 163.153 53.0772 162.176C53.0279 162.146 52.9786 162.112 52.9292 162.077C52.8799 162.047 52.8405 162.003 52.7961 161.973C52.6037 161.83 52.4261 161.682 52.2634 161.534C52.1943 161.475 52.1253 161.42 52.0611 161.356C52.0414 161.337 52.0168 161.322 52.002 161.302C52.002 161.297 52.0069 161.297 52.0069 161.297C50.5518 159.866 50.0438 158.108 50.8478 156.376C52.4508 152.94 58.5621 150.897 64.5106 151.815C64.6733 151.839 64.8213 151.874 64.9841 151.904C65.2258 152.19 65.428 152.496 65.5809 152.812C66.3158 154.391 65.7437 155.991 64.2492 157.24C65.3737 158.108 66.7104 158.878 68.2 159.52C69.5219 158.992 71.0806 158.691 72.7132 158.612C72.654 158.972 72.5553 159.337 72.3876 159.698C71.9536 160.611 71.2039 161.416 70.2322 162.102ZM87.5647 153.35C87.5696 153.35 87.5696 153.35 87.5647 153.35C87.5548 153.365 87.54 153.375 87.5302 153.389C87.3723 153.542 87.1898 153.686 87.0024 153.829C86.9333 153.888 86.8742 153.942 86.8002 153.997C86.7459 154.036 86.6769 154.076 86.6177 154.115C86.5388 154.174 86.45 154.219 86.3661 154.278C86.2231 154.367 86.0899 154.461 85.9321 154.544C86.0751 154.465 86.1984 154.377 86.3316 154.298C85.7101 154.683 84.9801 155.013 84.1663 155.285C83.8457 154.411 83.3869 153.557 82.7803 152.743C79.6284 152.896 76.3977 152.274 73.9907 150.887C72.6935 150.137 71.8007 149.248 71.2778 148.305C72.4123 146.968 74.4987 145.901 77.1918 145.482C82.1292 144.722 87.1997 146.415 88.5265 149.268C89.1973 150.704 88.7781 152.16 87.5647 153.35Z" fill="#CEE1FD"/>
<path d="M84.5214 136.972C84.26 135.669 83.6681 134.41 82.7803 133.221C79.6284 133.369 76.3977 132.752 73.9907 131.365C71.5837 129.978 70.5133 128.107 70.7698 126.295C69.7488 126.039 68.6982 125.807 67.5983 125.639C66.4934 125.471 65.3787 125.362 64.2738 125.288C62.9174 126.932 60.3772 128.245 57.0873 128.753C53.7974 129.267 50.463 128.867 47.8637 127.83C46.0633 128.605 44.4652 129.524 43.1088 130.575V137.081C43.2666 137.214 43.4047 137.352 43.5478 137.495C42.3985 138.631 40.6968 139.524 38.6992 140.067V146.573C38.9606 147.876 39.5525 149.14 40.4354 150.324C43.5823 150.176 46.818 150.793 49.2299 152.18C51.632 153.572 52.7024 155.438 52.4459 157.255C53.4718 157.511 54.5224 157.738 55.6273 157.911C56.7321 158.079 57.8419 158.187 58.9419 158.262C60.3032 156.613 62.8434 155.305 66.1333 154.791C69.4233 154.283 72.7625 154.683 75.357 155.719C77.1573 154.949 78.7653 154.026 80.1217 152.97V146.464C79.9589 146.331 79.8208 146.188 79.6778 146.05C80.8319 144.914 82.5287 144.031 84.5263 143.483V136.972H84.5214ZM51.997 141.78C54.4682 139.332 59.5387 138.033 64.5007 138.803C67.4454 139.258 69.7932 140.353 71.2187 141.765C68.7426 144.213 63.677 145.512 58.715 144.746C55.7753 144.287 53.4274 143.187 51.997 141.78Z" fill="white"/>
<path d="M67.5293 143.961C69.0287 143.419 70.3062 142.668 71.2236 141.76C69.7932 140.353 67.4454 139.257 64.5057 138.798C59.5437 138.033 54.4731 139.331 52.002 141.775C52.5347 142.303 53.2006 142.787 53.975 143.206C51.0846 141.637 49.743 139.223 50.8429 136.849C52.4459 133.413 58.5572 131.369 64.5057 132.293C70.4493 133.206 73.9759 136.74 72.3778 140.176C71.6182 141.814 69.8327 143.132 67.5293 143.961ZM66.1285 148.281C62.8385 148.794 60.2983 150.102 58.937 151.751C57.8371 151.672 56.7273 151.568 55.6224 151.4C54.5175 151.227 53.4669 151 52.441 150.744C52.6975 148.922 51.6271 147.061 49.2251 145.669C46.8131 144.277 43.5774 143.66 40.4305 143.808C39.5476 142.624 38.9558 141.36 38.6943 140.062V146.568C38.9558 147.871 39.5476 149.135 40.4305 150.319C43.5774 150.171 46.8131 150.788 49.2251 152.175C51.6271 153.567 52.6975 155.433 52.441 157.25C53.4669 157.506 54.5175 157.733 55.6224 157.906C56.7273 158.074 57.8371 158.182 58.937 158.256C60.2983 156.608 62.8385 155.3 66.1285 154.786C69.4184 154.278 72.7576 154.678 75.3521 155.714C77.1524 154.944 78.7604 154.021 80.1168 152.965V146.459C78.7604 147.511 77.1524 148.434 75.3521 149.204C72.7576 148.172 69.4233 147.772 66.1285 148.281ZM84.5214 136.972C81.6656 137.752 79.3917 139.223 78.5088 141.128C77.6259 143.034 78.3165 144.954 80.1119 146.459C79.9491 146.326 79.811 146.183 79.6679 146.045C80.8221 144.909 82.5189 144.026 84.5165 143.478V136.972H84.5214ZM44.7119 135.901C45.5948 134 44.9043 132.075 43.1138 130.57V137.076C43.2716 137.209 43.4097 137.347 43.5528 137.49C44.0411 137.002 44.4455 136.473 44.7119 135.901Z" fill="#CEE1FD"/>
<path d="M58.9422 158.869C58.9274 158.869 58.9126 158.869 58.8978 158.869C57.6055 158.78 56.5351 158.666 55.5339 158.508C54.5178 158.35 53.4573 158.133 52.2982 157.842C51.9924 157.768 51.7951 157.472 51.8395 157.161C52.0664 155.537 51.0059 153.913 48.9244 152.703C46.7098 151.425 43.627 150.778 40.4653 150.926C40.2631 150.931 40.0658 150.843 39.9474 150.68C39.0004 149.411 38.3789 148.068 38.0978 146.681C38.0879 146.642 38.0879 146.602 38.0879 146.558V140.052C38.0879 139.776 38.2753 139.534 38.5417 139.46C40.199 139.006 41.6047 138.325 42.6504 137.466C42.5567 137.357 42.5024 137.214 42.5024 137.066V130.56C42.5024 130.372 42.5912 130.19 42.7392 130.076C44.1202 129.005 45.7627 128.057 47.6272 127.253C47.7752 127.189 47.9478 127.189 48.0958 127.248C50.705 128.289 53.9505 128.615 56.9988 128.136C60.0125 127.668 62.4935 126.483 63.8055 124.888C63.9288 124.735 64.1212 124.656 64.3185 124.666C65.6059 124.755 66.6811 124.869 67.6923 125.022C68.6936 125.175 69.7491 125.397 70.923 125.688C71.2288 125.762 71.4261 126.058 71.3817 126.369C71.1499 127.998 72.2153 129.617 74.3017 130.822C76.5164 132.1 79.5991 132.747 82.7559 132.599C82.9532 132.589 83.1554 132.683 83.2738 132.845C84.2208 134.119 84.8472 135.462 85.1234 136.839C85.1333 136.878 85.1382 136.918 85.1382 136.962V143.468C85.1382 143.744 84.9557 143.986 84.6894 144.06C83.0272 144.514 81.6214 145.201 80.5807 146.05C80.6793 146.158 80.7286 146.301 80.7286 146.449V152.955C80.7286 153.143 80.6399 153.325 80.4919 153.439C79.1059 154.515 77.4585 155.468 75.594 156.267C75.446 156.331 75.2734 156.336 75.1254 156.272C72.526 155.231 69.2805 154.91 66.2273 155.384C63.2136 155.858 60.7277 157.042 59.4157 158.637C59.2973 158.79 59.1247 158.869 58.9422 158.869ZM53.0972 156.776C54.0295 156.998 54.8926 157.171 55.7213 157.299C56.6091 157.437 57.5561 157.541 58.6807 157.625C60.2197 155.927 62.8782 154.678 66.0399 154.184C69.2164 153.691 72.5902 154.012 75.3424 155.053C76.911 154.362 78.3118 153.557 79.5054 152.664V146.736C79.4462 146.676 79.387 146.622 79.3278 146.563L79.2489 146.489C79.1305 146.375 79.0615 146.217 79.0615 146.05C79.0615 145.887 79.1256 145.724 79.244 145.61C80.3735 144.5 81.9815 143.606 83.9101 143.019V137.036C83.6832 135.95 83.1998 134.879 82.4797 133.848C79.2095 133.951 76.0231 133.24 73.6852 131.898C71.362 130.56 70.0944 128.714 70.119 126.769C69.1769 126.542 68.3335 126.374 67.5048 126.246C66.6071 126.108 65.6601 126.004 64.5405 125.925C62.9966 127.628 60.338 128.872 57.1862 129.366C54.0196 129.859 50.6458 129.543 47.8837 128.497C46.3152 129.188 44.9193 129.987 43.7256 130.881V136.809C43.7996 136.878 43.8736 136.952 43.9476 137.021L43.9821 137.056C44.1005 137.17 44.1646 137.327 44.1646 137.495C44.1646 137.658 44.1005 137.816 43.9821 137.935C42.8477 139.05 41.2397 139.944 39.3161 140.531V146.514C39.543 147.604 40.0263 148.676 40.7465 149.702C44.0216 149.604 47.2079 150.309 49.541 151.652C51.8543 152.985 53.1219 154.831 53.0972 156.776ZM61.5613 145.571C60.5847 145.571 59.6031 145.497 58.6314 145.349C55.6572 144.89 53.1515 143.779 51.5731 142.219C51.4547 142.106 51.3906 141.948 51.3906 141.785C51.3906 141.622 51.4547 141.464 51.5731 141.35C54.2317 138.719 59.5883 137.426 64.6046 138.201C67.5739 138.66 70.0845 139.771 71.6629 141.331C71.7812 141.444 71.8454 141.602 71.8454 141.765C71.8454 141.928 71.7812 142.086 71.6629 142.199C69.5123 144.317 65.6157 145.571 61.5613 145.571ZM52.9147 141.78C54.3254 142.935 56.3921 143.759 58.8139 144.134C63.1742 144.811 67.7712 143.838 70.3064 141.76C68.8958 140.61 66.834 139.781 64.4073 139.406C60.052 138.734 55.45 139.702 52.9147 141.78Z" fill="#004CC2"/>
<path d="M60.584 130.037C62.2413 130.491 63.647 131.226 64.6039 132.169C64.4855 132.283 64.3721 132.401 64.2389 132.51V137.91C65.3635 138.784 66.7002 139.549 68.1898 140.19C70.3452 139.326 73.1123 138.996 75.8449 139.42C78.5725 139.845 80.6836 140.926 81.8082 142.298C82.7256 142.234 83.6431 142.145 84.5605 142.007C85.4779 141.864 86.346 141.676 87.1993 141.464C86.9872 139.953 87.8751 138.408 89.8678 137.253C91.8703 136.098 94.5536 135.59 97.1628 135.713C97.8978 134.731 98.3861 133.68 98.6031 132.604V127.203C96.9409 126.749 95.5351 126.009 94.5782 125.066C94.6966 124.953 94.8101 124.834 94.9432 124.725V119.325C93.8186 118.457 92.4918 117.692 90.9973 117.05C88.8418 117.909 86.0747 118.244 83.3471 117.82C80.6195 117.395 78.5035 116.309 77.3789 114.942C76.4614 115.006 75.5391 115.095 74.6217 115.233C73.7042 115.372 72.8312 115.564 71.9877 115.776C72.1998 117.287 71.312 118.832 69.3193 119.992C67.3217 121.142 64.6434 121.655 62.0243 121.532C61.2893 122.519 60.7961 123.566 60.584 124.647V130.037ZM81.9956 131.083C77.8771 131.725 73.6697 130.644 71.6178 128.61C72.8065 127.44 74.7548 126.532 77.1964 126.152C81.3149 125.515 85.5223 126.591 87.5742 128.625C86.3855 129.795 84.4372 130.708 81.9956 131.083Z" fill="#4540EA"/>
<path opacity="0.3" d="M70.6609 127.302C69.3341 124.449 72.264 121.522 77.1964 120.762C82.1337 120.002 87.2043 121.695 88.5311 124.548C89.4485 126.517 88.3338 128.516 85.9317 129.829C86.5778 129.479 87.1303 129.079 87.5693 128.64C85.5174 126.606 81.31 125.53 77.1914 126.167C74.7499 126.542 72.8016 127.455 71.6129 128.625C72.3774 129.375 73.4379 129.997 74.6808 130.451C72.772 129.75 71.2923 128.66 70.6609 127.302ZM68.1898 134.795C66.7002 134.153 65.3635 133.388 64.2389 132.515V137.915C65.3635 138.788 66.7002 139.554 68.1898 140.195C70.3452 139.331 73.1123 139.001 75.8449 139.425C78.5725 139.85 80.6836 140.931 81.8082 142.303C82.7256 142.239 83.6431 142.15 84.5605 142.012C85.4779 141.869 86.346 141.681 87.1993 141.469C86.9872 139.958 87.8751 138.413 89.8678 137.258C91.8703 136.103 94.5536 135.595 97.1628 135.718C97.8978 134.736 98.3861 133.685 98.6031 132.608V127.203C98.3811 128.284 97.8978 129.331 97.1628 130.313C94.5536 130.19 91.8654 130.703 89.8678 131.858C87.8751 133.013 86.9872 134.558 87.1993 136.069C86.3509 136.281 85.4779 136.473 84.5605 136.612C83.6431 136.755 82.7256 136.839 81.8082 136.908C80.6836 135.536 78.5725 134.45 75.8449 134.025C73.1123 133.596 70.3452 133.931 68.1898 134.795ZM60.584 130.037C62.2413 130.491 63.647 131.226 64.6039 132.169C64.4855 132.283 64.3721 132.401 64.2389 132.51C65.7334 131.261 66.3056 129.667 65.5707 128.082C64.8357 126.502 62.9515 125.278 60.584 124.632V130.037ZM94.5832 125.071C94.7015 124.957 94.815 124.839 94.9482 124.73V119.33C93.4586 120.579 92.8864 122.178 93.6213 123.758C93.8384 124.227 94.1738 124.666 94.5832 125.071Z" fill="black"/>
<path d="M81.8085 142.915C81.626 142.915 81.4534 142.836 81.335 142.693C80.2647 141.39 78.2276 140.417 75.7466 140.032C73.2311 139.637 70.5577 139.909 68.4121 140.763C68.2592 140.822 68.0915 140.822 67.9435 140.758C66.3898 140.087 65.0136 139.297 63.8595 138.398C63.7115 138.28 63.6227 138.102 63.6227 137.915V132.515C63.6227 132.401 63.6523 132.297 63.7065 132.204C62.8631 131.537 61.7385 130.999 60.4166 130.634C60.1503 130.56 59.9678 130.318 59.9678 130.042V124.642C59.9678 124.602 59.9727 124.563 59.9776 124.523C60.2095 123.363 60.7323 122.233 61.5313 121.162C61.6547 120.999 61.847 120.905 62.0493 120.915C64.6585 121.038 67.1888 120.505 69.0089 119.459C70.7007 118.481 71.5639 117.168 71.3765 115.865C71.3321 115.554 71.5294 115.263 71.8352 115.184C72.8217 114.937 73.6799 114.759 74.5283 114.631C75.3619 114.503 76.2842 114.404 77.3348 114.335C77.5223 114.32 77.7245 114.404 77.8478 114.557C78.9231 115.865 80.9552 116.833 83.4362 117.218C85.9468 117.608 88.6202 117.341 90.7658 116.487C90.9187 116.428 91.0864 116.428 91.2344 116.492C92.7782 117.158 94.1544 117.948 95.3135 118.847C95.4615 118.965 95.5503 119.143 95.5503 119.33V124.73C95.5503 124.844 95.5207 124.948 95.4664 125.041C96.3099 125.713 97.4394 126.256 98.7613 126.616C99.0276 126.69 99.215 126.932 99.215 127.208V132.608C99.215 132.648 99.2101 132.692 99.2002 132.732C98.9635 133.902 98.4407 135.032 97.6465 136.088C97.5232 136.251 97.321 136.335 97.1286 136.335C94.5243 136.212 91.989 136.745 90.169 137.796C88.4821 138.774 87.6189 140.087 87.8014 141.39C87.8458 141.701 87.6485 141.997 87.3427 142.071C86.3809 142.308 85.5029 142.491 84.6496 142.624C83.8308 142.752 82.9381 142.846 81.8431 142.92C81.8381 142.915 81.8233 142.915 81.8085 142.915ZM73.453 138.626C74.2866 138.626 75.1202 138.69 75.939 138.818C78.563 139.228 80.7727 140.259 82.07 141.666C82.9923 141.597 83.7618 141.513 84.4671 141.4C85.133 141.296 85.8186 141.158 86.5535 140.99C86.5683 139.366 87.6337 137.836 89.5574 136.72C91.4958 135.6 94.1494 135.017 96.8524 135.086C97.4196 134.272 97.7994 133.413 97.9869 132.539V127.662C96.4036 127.169 95.0817 126.428 94.1445 125.505C94.0261 125.392 93.962 125.234 93.962 125.066C93.962 124.903 94.0261 124.745 94.1445 124.627C94.2037 124.567 94.2629 124.508 94.3221 124.454V119.631C93.3504 118.911 92.2258 118.269 90.973 117.711C88.6745 118.575 85.8728 118.832 83.2439 118.422C80.6198 118.012 78.4101 116.981 77.1129 115.569C76.2201 115.638 75.4358 115.722 74.7108 115.836C74.0449 115.934 73.3741 116.068 72.6244 116.245C72.6096 117.869 71.5442 119.399 69.6156 120.515C67.6722 121.635 65.0334 122.218 62.3205 122.149C61.7484 122.973 61.3686 123.827 61.1861 124.701V129.578C62.7694 130.071 64.0913 130.812 65.0235 131.735C65.1419 131.853 65.206 132.011 65.206 132.179C65.206 132.347 65.1369 132.505 65.0136 132.618L64.915 132.712C64.8903 132.737 64.8657 132.761 64.8361 132.786V137.609C65.8028 138.324 66.9274 138.971 68.1852 139.529C69.7882 138.937 71.6132 138.626 73.453 138.626ZM79.6333 131.878C76.2398 131.878 72.9795 130.826 71.1841 129.049C71.0657 128.936 71.0016 128.778 71.0016 128.61C71.0016 128.447 71.0657 128.289 71.1841 128.176C72.5159 126.868 74.6171 125.935 77.0981 125.55C81.2956 124.903 85.7742 125.989 87.9987 128.196C88.1171 128.309 88.1812 128.467 88.1812 128.635C88.1812 128.798 88.1171 128.956 87.9987 129.069C86.667 130.377 84.5707 131.31 82.0847 131.69C81.2758 131.819 80.4521 131.878 79.6333 131.878ZM72.5454 128.615C74.6516 130.264 78.3706 131.029 81.9023 130.481C83.8358 130.185 85.4881 129.533 86.6423 128.63C84.5411 126.981 80.822 126.216 77.2855 126.764C75.352 127.06 73.6996 127.712 72.5454 128.615Z" fill="#004CC2"/>
<path d="M291.807 73.2814C291.807 75.2361 293.183 77.6203 294.88 78.6026L330.048 98.9245C331.744 99.9019 333.116 99.1121 333.116 97.1524V81.9196C333.116 79.96 331.739 77.5758 330.043 76.5936L294.88 56.2765C293.183 55.2942 291.802 56.089 291.807 58.0535V73.2814Z" fill="white"/>
<path d="M331.424 99.9611C330.896 99.9611 330.324 99.7933 329.742 99.4576L294.574 79.1357C292.68 78.0399 291.19 75.4682 291.19 73.2815V58.0536C291.19 56.8788 291.62 55.9853 292.394 55.5312C293.173 55.082 294.165 55.1561 295.181 55.7435L330.344 76.0605C332.238 77.1563 333.723 79.728 333.728 81.9147V97.1475C333.728 98.3223 333.299 99.2158 332.524 99.665C332.199 99.8624 331.824 99.9611 331.424 99.9611ZM293.509 56.474C293.321 56.474 293.154 56.5135 293.015 56.5974C292.636 56.8146 292.424 57.3477 292.424 58.0536V73.2864C292.424 75.014 293.691 77.2106 295.191 78.0744L330.359 98.3964C330.975 98.7518 331.543 98.8308 331.917 98.6086C332.292 98.3914 332.509 97.8633 332.509 97.1525V81.9197C332.509 80.1871 331.242 77.9905 329.742 77.1267L294.579 56.8097C294.189 56.5875 293.824 56.474 293.509 56.474Z" fill="#004CC2"/>
<path d="M327.138 82.675C327.138 83.144 326.807 83.3365 326.398 83.0995L298.53 66.9979C298.125 66.761 297.795 66.1983 297.795 65.7244C297.795 65.2506 298.13 65.063 298.535 65.2999L326.403 81.3966C326.803 81.6286 327.138 82.2061 327.138 82.675ZM322.013 86.5202C322.013 86.9941 321.683 87.1767 321.273 86.9497L298.53 73.8098C298.121 73.5728 297.79 73.0003 297.79 72.5313C297.79 72.0673 298.121 71.8699 298.53 72.1117L321.278 85.2517C321.683 85.4787 322.018 86.0513 322.013 86.5202ZM316.893 80.1625C316.893 79.6887 316.563 79.121 316.158 78.889L298.535 68.7058C298.125 68.464 297.795 68.6565 297.795 69.1254C297.795 69.5993 298.125 70.1669 298.535 70.4039L316.158 80.587C316.563 80.819 316.898 80.6315 316.893 80.1625Z" fill="#CEE1FD"/>
<path d="M132.14 331.381L145.566 339.14V347.369L133.427 354.388L120.001 346.628V338.395L132.14 331.381Z" fill="white"/>
<g opacity="0.5">
<path opacity="0.5" d="M133.427 354.388L120.001 346.628V338.395L133.427 346.155V354.388Z" fill="#CEE1FD"/>
</g>
<path d="M145.566 347.369L133.428 354.388V346.154L145.566 339.14V347.369Z" fill="#CEE1FD"/>
<path d="M133.427 355C133.324 355 133.215 354.97 133.122 354.916L119.695 347.157C119.508 347.048 119.39 346.846 119.39 346.623V338.39C119.39 338.173 119.508 337.97 119.695 337.857L131.834 330.843C132.022 330.734 132.258 330.734 132.446 330.843L145.872 338.597C146.059 338.706 146.178 338.908 146.178 339.13V347.364C146.178 347.581 146.059 347.783 145.872 347.897L133.733 354.911C133.639 354.97 133.531 355 133.427 355ZM120.613 346.273L133.427 353.677L144.954 347.018V339.496L132.14 332.092L120.613 338.75V346.273Z" fill="#004CC2"/>
<path d="M20.1046 175.178C22.2206 173.055 25.6585 173.055 27.7745 175.178C29.8905 177.295 29.8905 180.731 27.7745 182.848C25.6585 184.971 22.2206 184.971 20.1046 182.848C17.9886 180.731 17.9886 177.295 20.1046 175.178Z" fill="white"/>
<path d="M25.9889 181.066C27.7991 179.255 28.0507 176.491 26.7633 174.398C27.1185 174.615 27.4637 174.867 27.7695 175.178C29.8856 177.295 29.8856 180.731 27.7695 182.848C25.6535 184.971 22.2156 184.971 20.0996 182.848C19.7889 182.542 19.5423 182.197 19.3203 181.841C21.4166 183.125 24.1787 182.878 25.9889 181.066Z" fill="#CEE1FD"/>
<path d="M23.9366 185.055C22.3237 185.055 20.8095 184.428 19.6701 183.283C18.5307 182.142 17.9043 180.627 17.9043 179.013C17.9043 177.399 18.5307 175.883 19.6701 174.743C20.8095 173.603 22.3237 172.971 23.9366 172.971C25.5495 172.971 27.0638 173.598 28.2032 174.743C29.3426 175.883 29.969 177.399 29.969 179.013C29.969 180.627 29.3426 182.142 28.1983 183.283C27.0687 184.423 25.5495 185.055 23.9366 185.055ZM23.9366 174.2C22.6493 174.2 21.4458 174.704 20.5382 175.612C19.6306 176.52 19.1275 177.73 19.1275 179.013C19.1275 180.296 19.6257 181.506 20.5382 182.414C21.4458 183.322 22.6542 183.826 23.9416 183.826C25.2289 183.826 26.4324 183.322 27.34 182.414C28.2476 181.506 28.7507 180.296 28.7507 179.013C28.7507 177.73 28.2525 176.52 27.34 175.612C26.4324 174.704 25.224 174.2 23.9366 174.2Z" fill="#004CC2"/>
<path d="M90.515 67.7183C90.515 67.0124 90.0465 66.3115 89.1192 65.7685C88.1869 65.2305 86.9637 64.959 85.7405 64.959H85.7355C84.5123 64.959 83.294 65.2305 82.3617 65.7685C81.4295 66.3065 80.9609 67.0124 80.9609 67.7183V69.747C80.9609 72.6396 82.0855 77.5757 82.0855 81.4555C82.0855 85.3303 80.9609 90.686 80.9609 93.5193V95.1877C80.9609 95.8936 81.4295 96.5994 82.3617 97.1375C83.294 97.6755 84.5172 97.947 85.7355 97.947H85.7405C86.9637 97.947 88.1869 97.6804 89.1192 97.1375C90.0514 96.5994 90.52 95.8936 90.52 95.1877V93.5193C90.52 90.686 89.3954 85.3303 89.3954 81.4555C89.3954 77.5757 90.52 72.6396 90.52 69.747L90.515 67.7183Z" fill="#4540EA"/>
<path opacity="0.3" d="M90.5198 67.7183C90.5198 68.4241 90.0561 69.1349 89.1189 69.673C88.1867 70.211 86.9635 70.4825 85.7402 70.4825V97.9519C86.9635 97.9519 88.1867 97.6854 89.1189 97.1424C90.0512 96.6044 90.5198 95.8985 90.5198 95.1926V93.5242C90.5198 90.6909 89.3952 85.3352 89.3952 81.4604C89.3952 77.5806 90.5198 72.6445 90.5198 69.7519V67.7183Z" fill="black"/>
<path opacity="0.1" d="M82.3563 65.7637C84.2208 64.6876 87.2444 64.6876 89.1138 65.7687C90.9782 66.8447 90.9831 68.597 89.1138 69.6731C87.2493 70.7541 84.2257 70.7541 82.3563 69.6731C80.4919 68.5921 80.4919 66.8447 82.3563 65.7637Z" fill="white"/>
<path d="M85.7401 64.959C86.9634 64.959 88.1817 65.2305 89.1188 65.7685C90.051 66.3066 90.5147 67.0124 90.5147 67.7183H90.5196V69.747C90.5196 72.6396 89.395 77.5757 89.395 81.4555C89.395 85.3303 90.5196 90.686 90.5196 93.5194V95.1878C90.5196 95.8936 90.051 96.5995 89.1188 97.1375C88.1866 97.6756 86.9634 97.947 85.7401 97.947H85.7352C84.5119 97.947 83.2887 97.6805 82.3614 97.1375C81.4292 96.5995 80.9606 95.8936 80.9606 95.1878V93.5194C80.9606 90.686 82.0852 85.3303 82.0852 81.4555C82.0852 77.5757 80.9606 72.6396 80.9606 69.747V67.7183C80.9606 67.0124 81.4292 66.3115 82.3614 65.7685C83.2936 65.2305 84.5169 64.959 85.7401 64.959ZM85.7401 63.7349C84.2505 63.7349 82.8349 64.0804 81.7498 64.7122C80.5068 65.428 79.7818 66.4843 79.7374 67.6196C79.7324 67.6541 79.7324 67.6887 79.7324 67.7232V69.7569C79.7324 71.1785 79.979 73.0098 80.2454 74.9497C80.5463 77.171 80.857 79.4662 80.857 81.4604C80.857 83.4694 80.5265 86.0017 80.2405 88.2328C79.979 90.2418 79.7324 92.1372 79.7324 93.5243V95.1927C79.7324 96.3675 80.4674 97.4682 81.7448 98.2037C82.825 98.8306 84.2456 99.1761 85.7352 99.1761C87.2248 99.1761 88.6453 98.8306 89.7304 98.2037C91.0079 97.4633 91.7429 96.3675 91.7429 95.1927V93.5243C91.7429 92.1372 91.4962 90.2418 91.2348 88.2328C90.9438 86.0017 90.6183 83.4694 90.6183 81.4604C90.6183 79.4613 90.929 77.166 91.2299 74.9497C91.4913 73.0098 91.7429 71.1785 91.7429 69.7569V67.7282C91.7429 67.6788 91.7379 67.6295 91.733 67.585C91.6738 66.4645 90.9537 65.428 89.7255 64.7172C88.6404 64.0804 87.2248 63.7349 85.7401 63.7349Z" fill="#004CC2"/>
<path d="M85.4597 55.8421C84.705 55.4077 83.9701 54.8845 83.2549 54.2971V67.7184C83.2549 68.0886 83.4966 68.4539 83.9849 68.7303C84.4732 69.0117 85.1045 69.1499 85.7408 69.1499H85.7458C86.382 69.1499 87.0183 69.0067 87.5017 68.7303C87.99 68.4489 88.2317 68.0837 88.2317 67.7184V57.007C87.3439 56.775 86.4166 56.395 85.4597 55.8421Z" fill="#4540EA"/>
<path opacity="0.3" d="M85.7354 55.9951V69.1548H85.7403C86.3766 69.1548 87.0128 69.0116 87.4962 68.7352C87.9845 68.4539 88.2262 68.0886 88.2262 67.7233V57.012C87.4272 56.7997 86.5985 56.464 85.7354 55.9951Z" fill="black"/>
<path d="M85.7401 69.7669C84.9707 69.7669 84.2407 69.5892 83.6784 69.2634C83.0125 68.8784 82.6426 68.3305 82.6426 67.7184V54.2971C82.6426 54.0602 82.7807 53.843 82.9928 53.7443C83.2098 53.6456 83.4614 53.6752 83.6439 53.8233C84.3541 54.4107 85.0693 54.9092 85.7648 55.309C86.6378 55.8125 87.5158 56.1827 88.379 56.4098C88.6453 56.4789 88.8377 56.7257 88.8377 57.0021V67.7135C88.8377 68.3256 88.4678 68.8735 87.8019 69.2585C87.2396 69.5892 86.5096 69.7669 85.7401 69.7669ZM83.8658 55.546V67.7234C83.8658 67.8714 84.0237 68.0541 84.2851 68.2071C85.0348 68.6415 86.4455 68.6365 87.1853 68.2071C87.4517 68.0541 87.6095 67.8764 87.6095 67.7234V57.4711C86.7907 57.2144 85.967 56.8491 85.1532 56.3752C84.729 56.1334 84.2999 55.852 83.8658 55.546Z" fill="#004CC2"/>
<path d="M86.6428 27.9185C83.0569 25.8404 79.8114 25.6528 77.4635 27.0152L73.2315 29.4585H73.2266C70.8837 30.816 69.4336 33.7283 69.4385 37.8647C69.4336 46.1525 75.239 56.2221 82.396 60.3586C85.9818 62.4268 89.2224 62.6193 91.5703 61.2569L95.8121 58.8086C98.16 57.4512 99.6101 54.5389 99.6101 50.4024C99.615 42.1147 93.8096 32.05 86.6428 27.9185Z" fill="white"/>
<path d="M73.2266 29.4686C75.5744 28.1062 78.815 28.2987 82.3959 30.3768C89.5578 34.5084 95.3633 44.578 95.3583 52.8658C95.3583 56.9973 93.9082 59.9046 91.5653 61.267L95.8072 58.8187C98.155 57.4613 99.6051 54.549 99.6051 50.4125C99.6101 42.1198 93.8046 32.0551 86.6427 27.9236C83.0569 25.8455 79.8113 25.6579 77.4635 27.0203L73.2266 29.4686Z" fill="#CEE1FD"/>
<path d="M88.182 62.7526C86.2978 62.7526 84.2262 62.1307 82.0904 60.8967C74.7707 56.6615 68.8222 46.3351 68.8272 37.8697C68.8222 33.6543 70.2674 30.4902 72.8964 28.9502C72.9013 28.9452 72.9063 28.9452 72.9063 28.9403C72.9161 28.9354 72.9211 28.9304 72.9309 28.9255L77.1235 26.5068C77.1383 26.4969 77.1482 26.4871 77.163 26.4821C79.8117 24.942 83.294 25.2629 86.9587 27.3854C94.2784 31.6107 100.232 41.9371 100.227 50.4074C100.227 54.6377 98.7669 57.8116 96.1232 59.3467L91.8813 61.795C90.7764 62.4367 89.5285 62.7526 88.182 62.7526ZM73.5623 29.9818C73.5524 29.9868 73.5426 29.9917 73.5376 29.9966C71.2884 31.2998 70.0504 34.0985 70.0553 37.8697C70.0504 45.9452 75.7276 55.7977 82.707 59.8354C85.9772 61.721 89.0156 62.0418 91.2697 60.7338L95.5116 58.2855C97.7607 56.9823 99.0037 54.1836 99.0037 50.4124C99.0086 42.332 93.3314 32.4844 86.3471 28.4516C83.1016 26.571 80.0731 26.2402 77.8239 27.5236C77.8091 27.5335 77.7943 27.5434 77.7795 27.5483L73.5623 29.9818C73.5623 29.9769 73.5623 29.9818 73.5623 29.9818Z" fill="#004CC2"/>
<path d="M82.3962 58.2558C76.2454 54.7019 71.2587 46.0489 71.2637 38.926C71.2587 31.8131 76.2504 28.9156 82.4011 32.4795C88.5567 36.0335 93.5483 44.6865 93.5434 51.8093C93.5434 58.9272 88.5469 61.8098 82.3962 58.2558Z" fill="#CEE1FD"/>
<path opacity="0.6" d="M86.643 55.8027C80.4923 52.2487 75.5007 43.5908 75.5056 36.4729C75.5056 34.1727 76.0284 32.3216 76.9409 30.979C73.5474 31.2307 71.2539 34.1036 71.2588 38.9261C71.2539 46.0489 76.2455 54.7019 82.3913 58.2559C86.5592 60.6598 90.1894 60.107 92.1032 57.2983C90.4903 57.4168 88.6258 56.9479 86.643 55.8027Z" fill="black"/>
</svg>
